2, 0, Note_on_c, 9, 37, 127
2, 480, Note_on_c, 9, 37, 127
2, 960, Note_on_c, 9, 37, 127
2, 1440, Note_on_c, 9, 37, 127
2, 1920, Note_on_c, 9, 44, 127
2, 2400, Note_on_c, 9, 44, 127
2, 2880, Note_on_c, 9, 44, 127
2, 3360, Note_on_c, 9, 44, 127
2, 3840, Note_on_c, 9, 44, 127
2, 4320, Note_on_c, 9, 44, 127
2, 4800, Note_on_c, 9, 44, 127
2, 5280, Note_on_c, 9, 44, 127
2, 5760, Note_on_c, 9, 44, 127
2, 6240, Note_on_c, 9, 44, 127
2, 6720, Note_on_c, 9, 44, 127
2, 7200, Note_on_c, 9, 44, 127
2, 7680, Note_on_c, 9, 44, 127
2, 8160, Note_on_c, 9, 44, 127
2, 8640, Note_on_c, 9, 44, 127
2, 9120, Note_on_c, 9, 44, 127
2, 9600, Note_on_c, 9, 44, 127
2, 10080, Note_on_c, 9, 44, 127
2, 10560, Note_on_c, 9, 44, 127
2, 11040, Note_on_c, 9, 44, 127
2, 11520, Note_on_c, 9, 44, 127
2, 12000, Note_on_c, 9, 44, 127
2, 12480, Note_on_c, 9, 44, 127
2, 12960, Note_on_c, 9, 44, 127
2, 13440, Note_on_c, 9, 36, 127
2, 13440, Note_on_c, 9, 49, 127
2, 13440, Note_on_c, 9, 57, 127
2, 13680, Note_on_c, 9, 42, 123
2, 13920, Note_on_c, 9, 40, 127
2, 13920, Note_on_c, 9, 42, 127
2, 14160, Note_on_c, 9, 42, 123
2, 14400, Note_on_c, 9, 36, 127
2, 14400, Note_on_c, 9, 42, 127
2, 14640, Note_on_c, 9, 36, 127
2, 14640, Note_on_c, 9, 42, 119
2, 14880, Note_on_c, 9, 40, 127
2, 14880, Note_on_c, 9, 42, 127
2, 15120, Note_on_c, 9, 42, 123
2, 15360, Note_on_c, 9, 36, 127
2, 15360, Note_on_c, 9, 42, 127
2, 15600, Note_on_c, 9, 42, 122
2, 15840, Note_on_c, 9, 40, 127
2, 15840, Note_on_c, 9, 42, 127
2, 16080, Note_on_c, 9, 42, 125
2, 16320, Note_on_c, 9, 36, 127
2, 16320, Note_on_c, 9, 42, 127
2, 16560, Note_on_c, 9, 36, 127
2, 16560, Note_on_c, 9, 42, 121
2, 16800, Note_on_c, 9, 40, 127
2, 16800, Note_on_c, 9, 42, 127
2, 17040, Note_on_c, 9, 42, 122
2, 17280, Note_on_c, 9, 36, 127
2, 17280, Note_on_c, 9, 42, 127
2, 17520, Note_on_c, 9, 42, 123
2, 17760, Note_on_c, 9, 40, 127
2, 17760, Note_on_c, 9, 42, 127
2, 18000, Note_on_c, 9, 42, 123
2, 18240, Note_on_c, 9, 36, 127
2, 18240, Note_on_c, 9, 42, 127
2, 18480, Note_on_c, 9, 36, 127
2, 18480, Note_on_c, 9, 42, 119
2, 18720, Note_on_c, 9, 40, 127
2, 18720, Note_on_c, 9, 42, 127
2, 18960, Note_on_c, 9, 42, 123
2, 19200, Note_on_c, 9, 36, 127
2, 19200, Note_on_c, 9, 42, 127
2, 19440, Note_on_c, 9, 42, 122
2, 19680, Note_on_c, 9, 40, 127
2, 19680, Note_on_c, 9, 42, 127
2, 19920, Note_on_c, 9, 42, 125
2, 20160, Note_on_c, 9, 36, 127
2, 20160, Note_on_c, 9, 42, 127
2, 20400, Note_on_c, 9, 36, 127
2, 20400, Note_on_c, 9, 42, 121
2, 20640, Note_on_c, 9, 40, 127
2, 20640, Note_on_c, 9, 42, 127
2, 20880, Note_on_c, 9, 42, 122
2, 21120, Note_on_c, 9, 36, 127
2, 21120, Note_on_c, 9, 42, 127
2, 21360, Note_on_c, 9, 42, 123
2, 21600, Note_on_c, 9, 40, 127
2, 21600, Note_on_c, 9, 42, 127
2, 21840, Note_on_c, 9, 42, 123
2, 22080, Note_on_c, 9, 36, 127
2, 22080, Note_on_c, 9, 42, 127
2, 22320, Note_on_c, 9, 36, 127
2, 22320, Note_on_c, 9, 42, 119
2, 22560, Note_on_c, 9, 40, 127
2, 22560, Note_on_c, 9, 42, 127
2, 22800, Note_on_c, 9, 42, 123
2, 23040, Note_on_c, 9, 36, 127
2, 23040, Note_on_c, 9, 42, 127
2, 23280, Note_on_c, 9, 42, 122
2, 23520, Note_on_c, 9, 40, 127
2, 23520, Note_on_c, 9, 42, 127
2, 23760, Note_on_c, 9, 42, 125
2, 24000, Note_on_c, 9, 36, 127
2, 24000, Note_on_c, 9, 42, 127
2, 24240, Note_on_c, 9, 36, 127
2, 24240, Note_on_c, 9, 42, 121
2, 24480, Note_on_c, 9, 40, 127
2, 24480, Note_on_c, 9, 42, 127
2, 24720, Note_on_c, 9, 42, 122
2, 24960, Note_on_c, 9, 36, 127
2, 24960, Note_on_c, 9, 42, 127
2, 25200, Note_on_c, 9, 42, 123
2, 25440, Note_on_c, 9, 40, 127
2, 25440, Note_on_c, 9, 42, 127
2, 25680, Note_on_c, 9, 42, 123
2, 25920, Note_on_c, 9, 36, 127
2, 25920, Note_on_c, 9, 42, 127
2, 26160, Note_on_c, 9, 36, 127
2, 26160, Note_on_c, 9, 42, 119
2, 26400, Note_on_c, 9, 40, 127
2, 26400, Note_on_c, 9, 42, 127
2, 26640, Note_on_c, 9, 42, 123
2, 26880, Note_on_c, 9, 36, 127
2, 26880, Note_on_c, 9, 42, 127
2, 27120, Note_on_c, 9, 42, 122
2, 27360, Note_on_c, 9, 40, 127
2, 27360, Note_on_c, 9, 42, 127
2, 27600, Note_on_c, 9, 42, 125
2, 27840, Note_on_c, 9, 36, 127
2, 27840, Note_on_c, 9, 42, 127
2, 28080, Note_on_c, 9, 36, 127
2, 28080, Note_on_c, 9, 42, 121
2, 28320, Note_on_c, 9, 40, 127
2, 28320, Note_on_c, 9, 42, 127
2, 28560, Note_on_c, 9, 42, 122
2, 28800, Note_on_c, 9, 36, 127
2, 28800, Note_on_c, 9, 42, 127
2, 29040, Note_on_c, 9, 42, 123
2, 29280, Note_on_c, 9, 40, 127
2, 29280, Note_on_c, 9, 42, 127
2, 29520, Note_on_c, 9, 42, 123
2, 29760, Note_on_c, 9, 36, 127
2, 29760, Note_on_c, 9, 42, 127
2, 30000, Note_on_c, 9, 36, 127
2, 30000, Note_on_c, 9, 42, 119
2, 30240, Note_on_c, 9, 40, 127
2, 30240, Note_on_c, 9, 42, 127
2, 30480, Note_on_c, 9, 42, 123
2, 30720, Note_on_c, 9, 36, 127
2, 30720, Note_on_c, 9, 42, 127
2, 30960, Note_on_c, 9, 42, 122
2, 31200, Note_on_c, 9, 40, 127
2, 31200, Note_on_c, 9, 42, 127
2, 31440, Note_on_c, 9, 42, 125
2, 31680, Note_on_c, 9, 36, 127
2, 31680, Note_on_c, 9, 42, 127
2, 31920, Note_on_c, 9, 36, 127
2, 31920, Note_on_c, 9, 42, 121
2, 32160, Note_on_c, 9, 40, 127
2, 32160, Note_on_c, 9, 42, 127
2, 32400, Note_on_c, 9, 42, 122
2, 32640, Note_on_c, 9, 36, 127
2, 32640, Note_on_c, 9, 42, 127
2, 32880, Note_on_c, 9, 42, 123
2, 33120, Note_on_c, 9, 40, 127
2, 33120, Note_on_c, 9, 42, 127
2, 33360, Note_on_c, 9, 42, 123
2, 33600, Note_on_c, 9, 36, 127
2, 33600, Note_on_c, 9, 42, 127
2, 33840, Note_on_c, 9, 36, 127
2, 33840, Note_on_c, 9, 42, 119
2, 34080, Note_on_c, 9, 40, 127
2, 34080, Note_on_c, 9, 42, 127
2, 34320, Note_on_c, 9, 42, 123
2, 34560, Note_on_c, 9, 36, 127
2, 34560, Note_on_c, 9, 42, 127
2, 34800, Note_on_c, 9, 42, 127
2, 35040, Note_on_c, 9, 20, 127
2, 35040, Note_on_c, 9, 40, 127
2, 35520, Note_on_c, 9, 36, 127
2, 35520, Note_on_c, 9, 49, 127
2, 35760, Note_on_c, 9, 36, 127
2, 35760, Note_on_c, 9, 57, 127
2, 36000, Note_on_c, 9, 40, 127
2, 36000, Note_on_c, 9, 36, 127
2, 36121, Note_on_c, 9, 40, 127
2, 36238, Note_on_c, 9, 40, 127
2, 36240, Note_on_c, 9, 36, 127
2, 36364, Note_on_c, 9, 40, 127
2, 36480, Note_on_c, 9, 36, 127
2, 36480, Note_on_c, 9, 49, 127
2, 36720, Note_on_c, 9, 36, 127
2, 36720, Note_on_c, 9, 57, 121
2, 36960, Note_on_c, 9, 40, 127
2, 36960, Note_on_c, 9, 57, 127
2, 37200, Note_on_c, 9, 57, 120
2, 37440, Note_on_c, 9, 36, 127
2, 37440, Note_on_c, 9, 57, 127
2, 37680, Note_on_c, 9, 36, 127
2, 37680, Note_on_c, 9, 57, 122
2, 37920, Note_on_c, 9, 40, 127
2, 37920, Note_on_c, 9, 57, 127
2, 38160, Note_on_c, 9, 57, 120
2, 38400, Note_on_c, 9, 36, 127
2, 38400, Note_on_c, 9, 57, 127
2, 38640, Note_on_c, 9, 36, 127
2, 38640, Note_on_c, 9, 57, 121
2, 38880, Note_on_c, 9, 40, 127
2, 38880, Note_on_c, 9, 57, 127
2, 39120, Note_on_c, 9, 57, 120
2, 39360, Note_on_c, 9, 36, 127
2, 39360, Note_on_c, 9, 57, 127
2, 39600, Note_on_c, 9, 36, 127
2, 39600, Note_on_c, 9, 57, 122
2, 39840, Note_on_c, 9, 40, 127
2, 39840, Note_on_c, 9, 57, 127
2, 40080, Note_on_c, 9, 36, 127
2, 40080, Note_on_c, 9, 49, 127
2, 40320, Note_on_c, 9, 36, 127
2, 40320, Note_on_c, 9, 57, 127
2, 40560, Note_on_c, 9, 36, 127
2, 40560, Note_on_c, 9, 57, 121
2, 40800, Note_on_c, 9, 40, 127
2, 40800, Note_on_c, 9, 57, 127
2, 41040, Note_on_c, 9, 57, 120
2, 41280, Note_on_c, 9, 36, 127
2, 41280, Note_on_c, 9, 57, 127
2, 41520, Note_on_c, 9, 36, 127
2, 41520, Note_on_c, 9, 57, 122
2, 41760, Note_on_c, 9, 40, 127
2, 41760, Note_on_c, 9, 57, 127
2, 42000, Note_on_c, 9, 57, 120
2, 42240, Note_on_c, 9, 36, 127
2, 42240, Note_on_c, 9, 57, 127
2, 42480, Note_on_c, 9, 36, 127
2, 42480, Note_on_c, 9, 57, 121
2, 42720, Note_on_c, 9, 40, 127
2, 42720, Note_on_c, 9, 57, 127
2, 42960, Note_on_c, 9, 57, 120
2, 43080, Note_on_c, 9, 40, 127
2, 43200, Note_on_c, 9, 36, 127
2, 43200, Note_on_c, 9, 57, 127
2, 43440, Note_on_c, 9, 36, 127
2, 43440, Note_on_c, 9, 57, 122
2, 43680, Note_on_c, 9, 40, 127
2, 43680, Note_on_c, 9, 57, 127
2, 43920, Note_on_c, 9, 36, 127
2, 43920, Note_on_c, 9, 49, 127
2, 44160, Note_on_c, 9, 36, 127
2, 44160, Note_on_c, 9, 57, 127
2, 44400, Note_on_c, 9, 36, 127
2, 44400, Note_on_c, 9, 57, 121
2, 44640, Note_on_c, 9, 40, 127
2, 44640, Note_on_c, 9, 57, 127
2, 44880, Note_on_c, 9, 57, 120
2, 45120, Note_on_c, 9, 36, 127
2, 45120, Note_on_c, 9, 57, 127
2, 45360, Note_on_c, 9, 36, 127
2, 45360, Note_on_c, 9, 57, 122
2, 45600, Note_on_c, 9, 40, 127
2, 45600, Note_on_c, 9, 57, 127
2, 45840, Note_on_c, 9, 57, 120
2, 46080, Note_on_c, 9, 36, 127
2, 46080, Note_on_c, 9, 57, 127
2, 46320, Note_on_c, 9, 36, 127
2, 46320, Note_on_c, 9, 57, 121
2, 46560, Note_on_c, 9, 40, 127
2, 46560, Note_on_c, 9, 57, 127
2, 46800, Note_on_c, 9, 57, 120
2, 46920, Note_on_c, 9, 40, 127
2, 47040, Note_on_c, 9, 36, 127
2, 47040, Note_on_c, 9, 57, 127
2, 47280, Note_on_c, 9, 36, 127
2, 47280, Note_on_c, 9, 57, 122
2, 47520, Note_on_c, 9, 40, 127
2, 47520, Note_on_c, 9, 57, 127
2, 47760, Note_on_c, 9, 36, 127
2, 47760, Note_on_c, 9, 49, 127
2, 48000, Note_on_c, 9, 36, 127
2, 48000, Note_on_c, 9, 57, 127
2, 48240, Note_on_c, 9, 36, 127
2, 48240, Note_on_c, 9, 57, 121
2, 48480, Note_on_c, 9, 40, 127
2, 48480, Note_on_c, 9, 57, 127
2, 48720, Note_on_c, 9, 57, 120
2, 48960, Note_on_c, 9, 36, 127
2, 48960, Note_on_c, 9, 57, 127
2, 49200, Note_on_c, 9, 36, 127
2, 49200, Note_on_c, 9, 57, 122
2, 49440, Note_on_c, 9, 40, 127
2, 49440, Note_on_c, 9, 57, 127
2, 49680, Note_on_c, 9, 36, 127
2, 49680, Note_on_c, 9, 57, 120
2, 49920, Note_on_c, 9, 36, 127
2, 49920, Note_on_c, 9, 49, 127
2, 49923, Note_on_c, 9, 40, 127
2, 50160, Note_on_c, 9, 36, 127
2, 50160, Note_on_c, 9, 49, 127
2, 50161, Note_on_c, 9, 40, 127
2, 50397, Note_on_c, 9, 40, 127
2, 50400, Note_on_c, 9, 36, 127
2, 50400, Note_on_c, 9, 49, 127
2, 50640, Note_on_c, 9, 36, 127
2, 50640, Note_on_c, 9, 49, 127
2, 50644, Note_on_c, 9, 40, 127
2, 50879, Note_on_c, 9, 40, 127
2, 50880, Note_on_c, 9, 36, 127
2, 50880, Note_on_c, 9, 49, 127
2, 51240, Note_on_c, 9, 38, 84
2, 51280, Note_on_c, 9, 38, 51
2, 51320, Note_on_c, 9, 38, 51
2, 51360, Note_on_c, 9, 40, 127
2, 51480, Note_on_c, 9, 47, 127
2, 51600, Note_on_c, 9, 43, 127
2, 51840, Note_on_c, 9, 36, 127
2, 51840, Note_on_c, 9, 57, 127
2, 52080, Note_on_c, 9, 42, 123
2, 52320, Note_on_c, 9, 40, 127
2, 52320, Note_on_c, 9, 42, 127
2, 52560, Note_on_c, 9, 42, 123
2, 52800, Note_on_c, 9, 36, 127
2, 52800, Note_on_c, 9, 42, 127
2, 53040, Note_on_c, 9, 36, 127
2, 53040, Note_on_c, 9, 42, 119
2, 53280, Note_on_c, 9, 40, 127
2, 53280, Note_on_c, 9, 42, 127
2, 53520, Note_on_c, 9, 42, 123
2, 53760, Note_on_c, 9, 36, 127
2, 53760, Note_on_c, 9, 42, 127
2, 54000, Note_on_c, 9, 42, 122
2, 54240, Note_on_c, 9, 40, 127
2, 54240, Note_on_c, 9, 42, 127
2, 54480, Note_on_c, 9, 42, 125
2, 54720, Note_on_c, 9, 36, 127
2, 54720, Note_on_c, 9, 42, 127
2, 54960, Note_on_c, 9, 36, 127
2, 54960, Note_on_c, 9, 42, 121
2, 55200, Note_on_c, 9, 40, 127
2, 55200, Note_on_c, 9, 42, 127
2, 55440, Note_on_c, 9, 42, 122
2, 55680, Note_on_c, 9, 36, 127
2, 55680, Note_on_c, 9, 42, 127
2, 55920, Note_on_c, 9, 42, 123
2, 56160, Note_on_c, 9, 40, 127
2, 56160, Note_on_c, 9, 42, 127
2, 56400, Note_on_c, 9, 42, 123
2, 56640, Note_on_c, 9, 36, 127
2, 56640, Note_on_c, 9, 42, 127
2, 56880, Note_on_c, 9, 36, 127
2, 56880, Note_on_c, 9, 42, 119
2, 57120, Note_on_c, 9, 40, 127
2, 57120, Note_on_c, 9, 42, 127
2, 57360, Note_on_c, 9, 42, 123
2, 57600, Note_on_c, 9, 36, 127
2, 57600, Note_on_c, 9, 42, 127
2, 57840, Note_on_c, 9, 42, 122
2, 58080, Note_on_c, 9, 40, 127
2, 58080, Note_on_c, 9, 42, 127
2, 58320, Note_on_c, 9, 42, 125
2, 58560, Note_on_c, 9, 36, 127
2, 58560, Note_on_c, 9, 42, 127
2, 58800, Note_on_c, 9, 36, 127
2, 58800, Note_on_c, 9, 42, 121
2, 59040, Note_on_c, 9, 40, 127
2, 59040, Note_on_c, 9, 42, 127
2, 59280, Note_on_c, 9, 42, 122
2, 59520, Note_on_c, 9, 36, 127
2, 59520, Note_on_c, 9, 42, 127
2, 59760, Note_on_c, 9, 42, 123
2, 60000, Note_on_c, 9, 40, 127
2, 60000, Note_on_c, 9, 42, 127
2, 60240, Note_on_c, 9, 42, 123
2, 60480, Note_on_c, 9, 36, 127
2, 60480, Note_on_c, 9, 42, 127
2, 60720, Note_on_c, 9, 36, 127
2, 60720, Note_on_c, 9, 42, 119
2, 60960, Note_on_c, 9, 40, 127
2, 60960, Note_on_c, 9, 42, 127
2, 61200, Note_on_c, 9, 42, 123
2, 61440, Note_on_c, 9, 36, 127
2, 61440, Note_on_c, 9, 42, 127
2, 61680, Note_on_c, 9, 42, 122
2, 61920, Note_on_c, 9, 40, 127
2, 61920, Note_on_c, 9, 42, 127
2, 62160, Note_on_c, 9, 42, 125
2, 62400, Note_on_c, 9, 36, 127
2, 62400, Note_on_c, 9, 42, 127
2, 62640, Note_on_c, 9, 36, 127
2, 62640, Note_on_c, 9, 42, 121
2, 62880, Note_on_c, 9, 40, 127
2, 62880, Note_on_c, 9, 42, 127
2, 63120, Note_on_c, 9, 42, 122
2, 63360, Note_on_c, 9, 36, 127
2, 63360, Note_on_c, 9, 42, 127
2, 63600, Note_on_c, 9, 42, 123
2, 63840, Note_on_c, 9, 40, 127
2, 63840, Note_on_c, 9, 42, 127
2, 64080, Note_on_c, 9, 42, 123
2, 64320, Note_on_c, 9, 36, 127
2, 64320, Note_on_c, 9, 42, 127
2, 64560, Note_on_c, 9, 36, 127
2, 64560, Note_on_c, 9, 42, 119
2, 64800, Note_on_c, 9, 40, 127
2, 64800, Note_on_c, 9, 42, 127
2, 65040, Note_on_c, 9, 42, 123
2, 65280, Note_on_c, 9, 36, 127
2, 65280, Note_on_c, 9, 42, 127
2, 65520, Note_on_c, 9, 42, 122
2, 65760, Note_on_c, 9, 40, 127
2, 65760, Note_on_c, 9, 42, 127
2, 66000, Note_on_c, 9, 42, 125
2, 66240, Note_on_c, 9, 36, 127
2, 66240, Note_on_c, 9, 42, 127
2, 66480, Note_on_c, 9, 36, 127
2, 66480, Note_on_c, 9, 42, 121
2, 66720, Note_on_c, 9, 40, 127
2, 66720, Note_on_c, 9, 42, 127
2, 66960, Note_on_c, 9, 42, 122
2, 67200, Note_on_c, 9, 36, 127
2, 67200, Note_on_c, 9, 42, 127
2, 67440, Note_on_c, 9, 42, 123
2, 67680, Note_on_c, 9, 40, 127
2, 67680, Note_on_c, 9, 42, 127
2, 67920, Note_on_c, 9, 42, 123
2, 68160, Note_on_c, 9, 36, 127
2, 68160, Note_on_c, 9, 42, 127
2, 68400, Note_on_c, 9, 36, 127
2, 68400, Note_on_c, 9, 42, 119
2, 68640, Note_on_c, 9, 40, 127
2, 68640, Note_on_c, 9, 42, 127
2, 68880, Note_on_c, 9, 42, 123
2, 69120, Note_on_c, 9, 36, 127
2, 69120, Note_on_c, 9, 42, 127
2, 69360, Note_on_c, 9, 42, 122
2, 69600, Note_on_c, 9, 40, 127
2, 69600, Note_on_c, 9, 42, 127
2, 69840, Note_on_c, 9, 42, 125
2, 70080, Note_on_c, 9, 36, 127
2, 70080, Note_on_c, 9, 42, 127
2, 70320, Note_on_c, 9, 36, 127
2, 70320, Note_on_c, 9, 42, 121
2, 70560, Note_on_c, 9, 40, 127
2, 70560, Note_on_c, 9, 42, 127
2, 70800, Note_on_c, 9, 42, 122
2, 71040, Note_on_c, 9, 36, 127
2, 71040, Note_on_c, 9, 42, 127
2, 71280, Note_on_c, 9, 42, 123
2, 71520, Note_on_c, 9, 40, 127
2, 71520, Note_on_c, 9, 42, 127
2, 71760, Note_on_c, 9, 42, 123
2, 72000, Note_on_c, 9, 36, 127
2, 72000, Note_on_c, 9, 42, 127
2, 72240, Note_on_c, 9, 36, 127
2, 72240, Note_on_c, 9, 42, 119
2, 72480, Note_on_c, 9, 40, 127
2, 72480, Note_on_c, 9, 42, 127
2, 72720, Note_on_c, 9, 42, 123
2, 72960, Note_on_c, 9, 36, 127
2, 72960, Note_on_c, 9, 42, 127
2, 73200, Note_on_c, 9, 42, 122
2, 73440, Note_on_c, 9, 40, 127
2, 73440, Note_on_c, 9, 42, 127
2, 73680, Note_on_c, 9, 42, 125
2, 73920, Note_on_c, 9, 36, 127
2, 73920, Note_on_c, 9, 42, 127
2, 74160, Note_on_c, 9, 36, 127
2, 74160, Note_on_c, 9, 42, 121
2, 74400, Note_on_c, 9, 40, 127
2, 74400, Note_on_c, 9, 42, 127
2, 74640, Note_on_c, 9, 42, 122
2, 74880, Note_on_c, 9, 36, 127
2, 74880, Note_on_c, 9, 42, 127
2, 75120, Note_on_c, 9, 42, 123
2, 75360, Note_on_c, 9, 40, 127
2, 75360, Note_on_c, 9, 42, 127
2, 75600, Note_on_c, 9, 42, 123
2, 75840, Note_on_c, 9, 36, 127
2, 75840, Note_on_c, 9, 42, 127
2, 76080, Note_on_c, 9, 36, 127
2, 76080, Note_on_c, 9, 42, 119
2, 76320, Note_on_c, 9, 40, 127
2, 76320, Note_on_c, 9, 42, 127
2, 76560, Note_on_c, 9, 42, 123
2, 76800, Note_on_c, 9, 36, 127
2, 76800, Note_on_c, 9, 42, 127
2, 77040, Note_on_c, 9, 42, 122
2, 77280, Note_on_c, 9, 40, 127
2, 77280, Note_on_c, 9, 42, 127
2, 77520, Note_on_c, 9, 42, 125
2, 77760, Note_on_c, 9, 36, 127
2, 77760, Note_on_c, 9, 42, 127
2, 78000, Note_on_c, 9, 36, 127
2, 78000, Note_on_c, 9, 42, 121
2, 78240, Note_on_c, 9, 40, 127
2, 78240, Note_on_c, 9, 42, 127
2, 78480, Note_on_c, 9, 42, 122
2, 78720, Note_on_c, 9, 36, 127
2, 78720, Note_on_c, 9, 42, 127
2, 78960, Note_on_c, 9, 42, 123
2, 79200, Note_on_c, 9, 40, 127
2, 79200, Note_on_c, 9, 42, 127
2, 79440, Note_on_c, 9, 42, 123
2, 79680, Note_on_c, 9, 36, 127
2, 79680, Note_on_c, 9, 42, 127
2, 79920, Note_on_c, 9, 36, 127
2, 79920, Note_on_c, 9, 42, 119
2, 80160, Note_on_c, 9, 40, 127
2, 80160, Note_on_c, 9, 42, 127
2, 80400, Note_on_c, 9, 42, 123
2, 80640, Note_on_c, 9, 36, 127
2, 80640, Note_on_c, 9, 42, 127
2, 80880, Note_on_c, 9, 42, 122
2, 81120, Note_on_c, 9, 40, 127
2, 81120, Note_on_c, 9, 42, 127
2, 81360, Note_on_c, 9, 42, 125
2, 81600, Note_on_c, 9, 36, 127
2, 81600, Note_on_c, 9, 42, 127
2, 81840, Note_on_c, 9, 36, 127
2, 81840, Note_on_c, 9, 42, 121
2, 82080, Note_on_c, 9, 40, 127
2, 82080, Note_on_c, 9, 42, 127
2, 82320, Note_on_c, 9, 42, 122
2, 82560, Note_on_c, 9, 36, 127
2, 82560, Note_on_c, 9, 42, 127
2, 82800, Note_on_c, 9, 42, 123
2, 83040, Note_on_c, 9, 40, 127
2, 83040, Note_on_c, 9, 42, 127
2, 83280, Note_on_c, 9, 42, 123
2, 83520, Note_on_c, 9, 36, 127
2, 83520, Note_on_c, 9, 42, 127
2, 83760, Note_on_c, 9, 36, 127
2, 83760, Note_on_c, 9, 42, 119
2, 84000, Note_on_c, 9, 40, 127
2, 84000, Note_on_c, 9, 42, 127
2, 84240, Note_on_c, 9, 42, 123
2, 84480, Note_on_c, 9, 36, 127
2, 84480, Note_on_c, 9, 42, 127
2, 84720, Note_on_c, 9, 42, 127
2, 84960, Note_on_c, 9, 20, 127
2, 84960, Note_on_c, 9, 40, 127
2, 85440, Note_on_c, 9, 36, 127
2, 85440, Note_on_c, 9, 49, 127
2, 85680, Note_on_c, 9, 36, 127
2, 85680, Note_on_c, 9, 57, 127
2, 85920, Note_on_c, 9, 40, 127
2, 85920, Note_on_c, 9, 36, 127
2, 86041, Note_on_c, 9, 40, 127
2, 86158, Note_on_c, 9, 40, 127
2, 86160, Note_on_c, 9, 36, 127
2, 86284, Note_on_c, 9, 40, 127
2, 86400, Note_on_c, 9, 36, 127
2, 86400, Note_on_c, 9, 49, 127
2, 86640, Note_on_c, 9, 36, 127
2, 86640, Note_on_c, 9, 57, 121
2, 86880, Note_on_c, 9, 40, 127
2, 86880, Note_on_c, 9, 57, 127
2, 87120, Note_on_c, 9, 57, 120
2, 87360, Note_on_c, 9, 36, 127
2, 87360, Note_on_c, 9, 57, 127
2, 87600, Note_on_c, 9, 36, 127
2, 87600, Note_on_c, 9, 57, 122
2, 87840, Note_on_c, 9, 40, 127
2, 87840, Note_on_c, 9, 57, 127
2, 88080, Note_on_c, 9, 57, 120
2, 88320, Note_on_c, 9, 36, 127
2, 88320, Note_on_c, 9, 57, 127
2, 88560, Note_on_c, 9, 36, 127
2, 88560, Note_on_c, 9, 57, 121
2, 88800, Note_on_c, 9, 40, 127
2, 88800, Note_on_c, 9, 57, 127
2, 89040, Note_on_c, 9, 57, 120
2, 89280, Note_on_c, 9, 36, 127
2, 89280, Note_on_c, 9, 57, 127
2, 89520, Note_on_c, 9, 36, 127
2, 89520, Note_on_c, 9, 57, 122
2, 89760, Note_on_c, 9, 40, 127
2, 89760, Note_on_c, 9, 57, 127
2, 90000, Note_on_c, 9, 36, 127
2, 90000, Note_on_c, 9, 49, 127
2, 90240, Note_on_c, 9, 36, 127
2, 90240, Note_on_c, 9, 57, 127
2, 90480, Note_on_c, 9, 36, 127
2, 90480, Note_on_c, 9, 57, 121
2, 90720, Note_on_c, 9, 40, 127
2, 90720, Note_on_c, 9, 57, 127
2, 90960, Note_on_c, 9, 57, 120
2, 91080, Note_on_c, 9, 40, 127
2, 91200, Note_on_c, 9, 36, 127
2, 91200, Note_on_c, 9, 57, 127
2, 91440, Note_on_c, 9, 36, 127
2, 91440, Note_on_c, 9, 57, 122
2, 91680, Note_on_c, 9, 40, 127
2, 91680, Note_on_c, 9, 57, 127
2, 91920, Note_on_c, 9, 57, 120
2, 92160, Note_on_c, 9, 36, 127
2, 92160, Note_on_c, 9, 57, 127
2, 92400, Note_on_c, 9, 36, 127
2, 92400, Note_on_c, 9, 57, 121
2, 92640, Note_on_c, 9, 40, 127
2, 92640, Note_on_c, 9, 57, 127
2, 92880, Note_on_c, 9, 57, 120
2, 93120, Note_on_c, 9, 36, 127
2, 93120, Note_on_c, 9, 57, 127
2, 93360, Note_on_c, 9, 36, 127
2, 93360, Note_on_c, 9, 57, 122
2, 93600, Note_on_c, 9, 40, 127
2, 93600, Note_on_c, 9, 57, 127
2, 93840, Note_on_c, 9, 36, 127
2, 93840, Note_on_c, 9, 49, 127
2, 94080, Note_on_c, 9, 36, 127
2, 94080, Note_on_c, 9, 57, 127
2, 94320, Note_on_c, 9, 36, 127
2, 94320, Note_on_c, 9, 57, 121
2, 94560, Note_on_c, 9, 40, 127
2, 94560, Note_on_c, 9, 57, 127
2, 94800, Note_on_c, 9, 57, 120
2, 95040, Note_on_c, 9, 36, 127
2, 95040, Note_on_c, 9, 57, 127
2, 95280, Note_on_c, 9, 36, 127
2, 95280, Note_on_c, 9, 57, 122
2, 95520, Note_on_c, 9, 40, 127
2, 95520, Note_on_c, 9, 57, 127
2, 95760, Note_on_c, 9, 57, 120
2, 96000, Note_on_c, 9, 36, 127
2, 96000, Note_on_c, 9, 57, 127
2, 96240, Note_on_c, 9, 36, 127
2, 96240, Note_on_c, 9, 57, 121
2, 96480, Note_on_c, 9, 40, 127
2, 96480, Note_on_c, 9, 57, 127
2, 96720, Note_on_c, 9, 57, 120
2, 96840, Note_on_c, 9, 40, 127
2, 96960, Note_on_c, 9, 36, 127
2, 96960, Note_on_c, 9, 57, 127
2, 97200, Note_on_c, 9, 36, 127
2, 97200, Note_on_c, 9, 57, 122
2, 97440, Note_on_c, 9, 40, 127
2, 97440, Note_on_c, 9, 57, 127
2, 97680, Note_on_c, 9, 36, 127
2, 97680, Note_on_c, 9, 49, 127
2, 97920, Note_on_c, 9, 36, 127
2, 97920, Note_on_c, 9, 57, 127
2, 98160, Note_on_c, 9, 36, 127
2, 98160, Note_on_c, 9, 57, 121
2, 98400, Note_on_c, 9, 40, 127
2, 98400, Note_on_c, 9, 57, 127
2, 98640, Note_on_c, 9, 57, 120
2, 98880, Note_on_c, 9, 36, 127
2, 98880, Note_on_c, 9, 57, 127
2, 99120, Note_on_c, 9, 36, 127
2, 99120, Note_on_c, 9, 57, 122
2, 99360, Note_on_c, 9, 40, 127
2, 99360, Note_on_c, 9, 57, 127
2, 99600, Note_on_c, 9, 36, 127
2, 99600, Note_on_c, 9, 57, 120
2, 99840, Note_on_c, 9, 36, 127
2, 99840, Note_on_c, 9, 49, 127
2, 99843, Note_on_c, 9, 40, 127
2, 100080, Note_on_c, 9, 36, 127
2, 100080, Note_on_c, 9, 49, 127
2, 100081, Note_on_c, 9, 40, 127
2, 100317, Note_on_c, 9, 40, 127
2, 100320, Note_on_c, 9, 36, 127
2, 100320, Note_on_c, 9, 49, 127
2, 100560, Note_on_c, 9, 36, 127
2, 100560, Note_on_c, 9, 49, 127
2, 100564, Note_on_c, 9, 40, 127
2, 100799, Note_on_c, 9, 40, 127
2, 100800, Note_on_c, 9, 36, 127
2, 100800, Note_on_c, 9, 50, 127
2, 101760, Note_on_c, 9, 36, 127
2, 101760, Note_on_c, 9, 57, 127
2, 102000, Note_on_c, 9, 42, 123
2, 102240, Note_on_c, 9, 40, 127
2, 102240, Note_on_c, 9, 42, 127
2, 102480, Note_on_c, 9, 42, 123
2, 102720, Note_on_c, 9, 36, 127
2, 102720, Note_on_c, 9, 42, 127
2, 102960, Note_on_c, 9, 36, 127
2, 102960, Note_on_c, 9, 42, 119
2, 103200, Note_on_c, 9, 40, 127
2, 103200, Note_on_c, 9, 42, 127
2, 103440, Note_on_c, 9, 42, 123
2, 103680, Note_on_c, 9, 36, 127
2, 103680, Note_on_c, 9, 42, 127
2, 103920, Note_on_c, 9, 42, 122
2, 104160, Note_on_c, 9, 40, 127
2, 104160, Note_on_c, 9, 42, 127
2, 104400, Note_on_c, 9, 42, 125
2, 104640, Note_on_c, 9, 36, 127
2, 104640, Note_on_c, 9, 42, 127
2, 104880, Note_on_c, 9, 36, 127
2, 104880, Note_on_c, 9, 42, 121
2, 105120, Note_on_c, 9, 40, 127
2, 105120, Note_on_c, 9, 42, 127
2, 105360, Note_on_c, 9, 42, 122
2, 105600, Note_on_c, 9, 36, 127
2, 105600, Note_on_c, 9, 42, 127
2, 105840, Note_on_c, 9, 42, 123
2, 106080, Note_on_c, 9, 40, 127
2, 106080, Note_on_c, 9, 42, 127
2, 106320, Note_on_c, 9, 42, 123
2, 106560, Note_on_c, 9, 36, 127
2, 106560, Note_on_c, 9, 42, 127
2, 106800, Note_on_c, 9, 36, 127
2, 106800, Note_on_c, 9, 42, 119
2, 107040, Note_on_c, 9, 40, 127
2, 107040, Note_on_c, 9, 42, 127
2, 107280, Note_on_c, 9, 42, 123
2, 107520, Note_on_c, 9, 36, 127
2, 107520, Note_on_c, 9, 42, 127
2, 107760, Note_on_c, 9, 42, 127
2, 108000, Note_on_c, 9, 20, 127
2, 108000, Note_on_c, 9, 40, 127
2, 108480, Note_on_c, 9, 36, 127
2, 108480, Note_on_c, 9, 49, 127
2, 108720, Note_on_c, 9, 36, 127
2, 108720, Note_on_c, 9, 57, 127
2, 108960, Note_on_c, 9, 40, 127
2, 108960, Note_on_c, 9, 36, 127
2, 109081, Note_on_c, 9, 40, 127
2, 109198, Note_on_c, 9, 40, 127
2, 109200, Note_on_c, 9, 36, 127
2, 109324, Note_on_c, 9, 40, 127
2, 109440, Note_on_c, 9, 36, 127
2, 109440, Note_on_c, 9, 49, 127
2, 109680, Note_on_c, 9, 36, 127
2, 109680, Note_on_c, 9, 57, 121
2, 109920, Note_on_c, 9, 40, 127
2, 109920, Note_on_c, 9, 57, 127
2, 110160, Note_on_c, 9, 57, 120
2, 110400, Note_on_c, 9, 36, 127
2, 110400, Note_on_c, 9, 57, 127
2, 110640, Note_on_c, 9, 36, 127
2, 110640, Note_on_c, 9, 57, 122
2, 110880, Note_on_c, 9, 40, 127
2, 110880, Note_on_c, 9, 57, 127
2, 111120, Note_on_c, 9, 57, 120
2, 111360, Note_on_c, 9, 36, 127
2, 111360, Note_on_c, 9, 57, 127
2, 111600, Note_on_c, 9, 36, 127
2, 111600, Note_on_c, 9, 57, 121
2, 111840, Note_on_c, 9, 40, 127
2, 111840, Note_on_c, 9, 57, 127
2, 112080, Note_on_c, 9, 57, 120
2, 112320, Note_on_c, 9, 36, 127
2, 112320, Note_on_c, 9, 57, 127
2, 112560, Note_on_c, 9, 36, 127
2, 112560, Note_on_c, 9, 57, 122
2, 112800, Note_on_c, 9, 40, 127
2, 112800, Note_on_c, 9, 57, 127
2, 113040, Note_on_c, 9, 36, 127
2, 113040, Note_on_c, 9, 49, 127
2, 113280, Note_on_c, 9, 36, 127
2, 113280, Note_on_c, 9, 57, 127
2, 113520, Note_on_c, 9, 36, 127
2, 113520, Note_on_c, 9, 57, 121
2, 113760, Note_on_c, 9, 40, 127
2, 113760, Note_on_c, 9, 57, 127
2, 114000, Note_on_c, 9, 57, 120
2, 114240, Note_on_c, 9, 36, 127
2, 114240, Note_on_c, 9, 57, 127
2, 114480, Note_on_c, 9, 36, 127
2, 114480, Note_on_c, 9, 57, 122
2, 114720, Note_on_c, 9, 40, 127
2, 114720, Note_on_c, 9, 57, 127
2, 114960, Note_on_c, 9, 57, 120
2, 115080, Note_on_c, 9, 40, 127
2, 115200, Note_on_c, 9, 36, 127
2, 115200, Note_on_c, 9, 57, 127
2, 115440, Note_on_c, 9, 36, 127
2, 115440, Note_on_c, 9, 57, 121
2, 115680, Note_on_c, 9, 40, 127
2, 115680, Note_on_c, 9, 57, 127
2, 115920, Note_on_c, 9, 57, 120
2, 116160, Note_on_c, 9, 36, 127
2, 116160, Note_on_c, 9, 57, 127
2, 116400, Note_on_c, 9, 36, 127
2, 116400, Note_on_c, 9, 57, 122
2, 116640, Note_on_c, 9, 40, 127
2, 116670, Note_on_c, 9, 38, 127
2, 116880, Note_on_c, 9, 36, 127
2, 117119, Note_on_c, 9, 43, 127
2, 117120, Note_on_c, 9, 36, 127
2, 117127, Note_on_c, 9, 41, 127
2, 117354, Note_on_c, 9, 41, 127
2, 117360, Note_on_c, 9, 36, 127
2, 117367, Note_on_c, 9, 43, 127
2, 118080, Note_on_c, 9, 36, 127
2, 118082, Note_on_c, 9, 41, 127
2, 118082, Note_on_c, 9, 43, 127
2, 118320, Note_on_c, 9, 36, 127
2, 118321, Note_on_c, 9, 41, 127
2, 118325, Note_on_c, 9, 43, 127
2, 119040, Note_on_c, 9, 36, 127
2, 119040, Note_on_c, 9, 57, 127
2, 119280, Note_on_c, 9, 36, 127
2, 119280, Note_on_c, 9, 57, 121
2, 119520, Note_on_c, 9, 40, 127
2, 119520, Note_on_c, 9, 57, 127
2, 119760, Note_on_c, 9, 57, 120
2, 119880, Note_on_c, 9, 40, 127
2, 120000, Note_on_c, 9, 36, 127
2, 120000, Note_on_c, 9, 57, 127
2, 120240, Note_on_c, 9, 36, 127
2, 120240, Note_on_c, 9, 57, 122
2, 120480, Note_on_c, 9, 40, 127
2, 120480, Note_on_c, 9, 57, 127
2, 120720, Note_on_c, 9, 36, 127
2, 120720, Note_on_c, 9, 57, 120
2, 120959, Note_on_c, 9, 43, 127
2, 120960, Note_on_c, 9, 36, 127
2, 120967, Note_on_c, 9, 41, 127
2, 121194, Note_on_c, 9, 41, 127
2, 121200, Note_on_c, 9, 36, 127
2, 121207, Note_on_c, 9, 43, 127
2, 121920, Note_on_c, 9, 36, 127
2, 121922, Note_on_c, 9, 41, 127
2, 121922, Note_on_c, 9, 43, 127
2, 122160, Note_on_c, 9, 36, 127
2, 122161, Note_on_c, 9, 41, 127
2, 122165, Note_on_c, 9, 43, 127
2, 122640, Note_on_c, 9, 38, 127
2, 122640, Note_on_c, 9, 52, 127
2, 122880, Note_on_c, 9, 36, 127
2, 122880, Note_on_c, 9, 57, 127
2, 123120, Note_on_c, 9, 36, 127
2, 123120, Note_on_c, 9, 57, 121
2, 123360, Note_on_c, 9, 40, 127
2, 123360, Note_on_c, 9, 57, 127
2, 123600, Note_on_c, 9, 36, 127
2, 123600, Note_on_c, 9, 57, 120
2, 123840, Note_on_c, 9, 36, 127
2, 123840, Note_on_c, 9, 57, 127
2, 124080, Note_on_c, 9, 36, 127
2, 124080, Note_on_c, 9, 57, 122
2, 124320, Note_on_c, 9, 40, 127
2, 124320, Note_on_c, 9, 57, 127
2, 124560, Note_on_c, 9, 36, 127
2, 124560, Note_on_c, 9, 57, 120
2, 124798, Note_on_c, 9, 40, 127
2, 124800, Note_on_c, 9, 36, 127
2, 124800, Note_on_c, 9, 57, 127
2, 125040, Note_on_c, 9, 36, 127
2, 125040, Note_on_c, 9, 57, 119
2, 125045, Note_on_c, 9, 40, 127
2, 125280, Note_on_c, 9, 36, 127
2, 125280, Note_on_c, 9, 57, 127
2, 125286, Note_on_c, 9, 40, 127
2, 125520, Note_on_c, 9, 36, 127
2, 125520, Note_on_c, 9, 57, 119
2, 125522, Note_on_c, 9, 40, 127
2, 125760, Note_on_c, 9, 36, 127
2, 125760, Note_on_c, 9, 58, 127
2, 125763, Note_on_c, 9, 40, 127
2, 126720, Note_on_c, 9, 44, 127
2, 127200, Note_on_c, 9, 44, 127
2, 127680, Note_on_c, 9, 44, 127
2, 128160, Note_on_c, 9, 44, 127
2, 128640, Note_on_c, 9, 44, 127
2, 129120, Note_on_c, 9, 44, 127
2, 129600, Note_on_c, 9, 44, 127
2, 130080, Note_on_c, 9, 44, 127
2, 130560, Note_on_c, 9, 44, 127
2, 131040, Note_on_c, 9, 44, 127
2, 131520, Note_on_c, 9, 44, 127
2, 132000, Note_on_c, 9, 44, 127
2, 132480, Note_on_c, 9, 44, 127
2, 132960, Note_on_c, 9, 44, 127
2, 133440, Note_on_c, 9, 44, 127
2, 133680, Note_on_c, 9, 36, 127
2, 133681, Note_on_c, 9, 47, 127
2, 133920, Note_on_c, 9, 36, 127
2, 133929, Note_on_c, 9, 43, 127
2, 134160, Note_on_c, 9, 36, 127
2, 134165, Note_on_c, 9, 41, 127
2, 134400, Note_on_c, 9, 36, 127
2, 134400, Note_on_c, 9, 57, 127
2, 134640, Note_on_c, 9, 36, 127
2, 134640, Note_on_c, 9, 57, 121
2, 134880, Note_on_c, 9, 40, 127
2, 134880, Note_on_c, 9, 57, 127
2, 135120, Note_on_c, 9, 57, 120
2, 135360, Note_on_c, 9, 36, 127
2, 135360, Note_on_c, 9, 57, 127
2, 135600, Note_on_c, 9, 36, 127
2, 135600, Note_on_c, 9, 57, 122
2, 135840, Note_on_c, 9, 40, 127
2, 135840, Note_on_c, 9, 57, 127
2, 136080, Note_on_c, 9, 57, 120
2, 136320, Note_on_c, 9, 36, 127
2, 136320, Note_on_c, 9, 57, 127
2, 136560, Note_on_c, 9, 36, 127
2, 136560, Note_on_c, 9, 57, 121
2, 136800, Note_on_c, 9, 40, 127
2, 136800, Note_on_c, 9, 57, 127
2, 137040, Note_on_c, 9, 57, 120
2, 137160, Note_on_c, 9, 40, 127
2, 137280, Note_on_c, 9, 36, 127
2, 137280, Note_on_c, 9, 57, 127
2, 137520, Note_on_c, 9, 36, 127
2, 137520, Note_on_c, 9, 57, 122
2, 137760, Note_on_c, 9, 40, 127
2, 137760, Note_on_c, 9, 57, 127
2, 138000, Note_on_c, 9, 36, 127
2, 138000, Note_on_c, 9, 49, 127
2, 138240, Note_on_c, 9, 36, 127
2, 138240, Note_on_c, 9, 57, 127
2, 138480, Note_on_c, 9, 36, 127
2, 138480, Note_on_c, 9, 57, 121
2, 138720, Note_on_c, 9, 40, 127
2, 138720, Note_on_c, 9, 57, 127
2, 138960, Note_on_c, 9, 57, 120
2, 139200, Note_on_c, 9, 36, 127
2, 139200, Note_on_c, 9, 57, 127
2, 139440, Note_on_c, 9, 36, 127
2, 139440, Note_on_c, 9, 57, 122
2, 139680, Note_on_c, 9, 40, 127
2, 139680, Note_on_c, 9, 57, 127
2, 139920, Note_on_c, 9, 57, 120
2, 140160, Note_on_c, 9, 36, 127
2, 140160, Note_on_c, 9, 57, 127
2, 140400, Note_on_c, 9, 36, 127
2, 140400, Note_on_c, 9, 57, 121
2, 140640, Note_on_c, 9, 40, 127
2, 140640, Note_on_c, 9, 57, 127
2, 140880, Note_on_c, 9, 57, 120
2, 141000, Note_on_c, 9, 40, 127
2, 141120, Note_on_c, 9, 36, 127
2, 141120, Note_on_c, 9, 57, 127
2, 141360, Note_on_c, 9, 36, 127
2, 141360, Note_on_c, 9, 57, 122
2, 141600, Note_on_c, 9, 40, 127
2, 141600, Note_on_c, 9, 57, 127
2, 141840, Note_on_c, 9, 36, 127
2, 141840, Note_on_c, 9, 49, 127
2, 142080, Note_on_c, 9, 36, 127
2, 142080, Note_on_c, 9, 57, 127
2, 142320, Note_on_c, 9, 36, 127
2, 142320, Note_on_c, 9, 57, 121
2, 142560, Note_on_c, 9, 40, 127
2, 142560, Note_on_c, 9, 57, 127
2, 142800, Note_on_c, 9, 57, 120
2, 143040, Note_on_c, 9, 36, 127
2, 143040, Note_on_c, 9, 57, 127
2, 143280, Note_on_c, 9, 36, 127
2, 143280, Note_on_c, 9, 57, 122
2, 143520, Note_on_c, 9, 40, 127
2, 143520, Note_on_c, 9, 57, 127
2, 143760, Note_on_c, 9, 57, 120
2, 144000, Note_on_c, 9, 36, 127
2, 144000, Note_on_c, 9, 57, 127
2, 144240, Note_on_c, 9, 36, 127
2, 144240, Note_on_c, 9, 57, 121
2, 144480, Note_on_c, 9, 40, 127
2, 144480, Note_on_c, 9, 52, 127
2, 144840, Note_on_c, 9, 40, 127
2, 144960, Note_on_c, 9, 36, 127
2, 144960, Note_on_c, 9, 57, 127
2, 145200, Note_on_c, 9, 36, 127
2, 145200, Note_on_c, 9, 57, 122
2, 145440, Note_on_c, 9, 40, 127
2, 145440, Note_on_c, 9, 57, 127
2, 145680, Note_on_c, 9, 36, 127
2, 145680, Note_on_c, 9, 49, 127
2, 145920, Note_on_c, 9, 36, 127
2, 145920, Note_on_c, 9, 57, 127
2, 146160, Note_on_c, 9, 36, 127
2, 146160, Note_on_c, 9, 57, 121
2, 146400, Note_on_c, 9, 40, 127
2, 146400, Note_on_c, 9, 57, 127
2, 146640, Note_on_c, 9, 57, 120
2, 146880, Note_on_c, 9, 36, 127
2, 146880, Note_on_c, 9, 57, 127
2, 147120, Note_on_c, 9, 36, 127
2, 147120, Note_on_c, 9, 57, 122
2, 147360, Note_on_c, 9, 40, 127
2, 147360, Note_on_c, 9, 49, 127
2, 147600, Note_on_c, 9, 36, 127
2, 147840, Note_on_c, 9, 36, 127
2, 147841, Note_on_c, 9, 40, 100
2, 147845, Note_on_c, 9, 43, 97
2, 148076, Note_on_c, 9, 43, 101
2, 148080, Note_on_c, 9, 36, 127
2, 148080, Note_on_c, 9, 40, 95
2, 148312, Note_on_c, 9, 40, 103
2, 148320, Note_on_c, 9, 36, 127
2, 148320, Note_on_c, 9, 43, 98
2, 148556, Note_on_c, 9, 40, 105
2, 148560, Note_on_c, 9, 43, 102
2, 148560, Note_on_c, 9, 36, 127
2, 148795, Note_on_c, 9, 43, 107
2, 148800, Note_on_c, 9, 36, 127
2, 148804, Note_on_c, 9, 40, 103
2, 149035, Note_on_c, 9, 43, 105
2, 149039, Note_on_c, 9, 40, 105
2, 149040, Note_on_c, 9, 36, 127
2, 149279, Note_on_c, 9, 40, 110
2, 149280, Note_on_c, 9, 36, 127
2, 149283, Note_on_c, 9, 43, 105
2, 149520, Note_on_c, 9, 36, 127
2, 149522, Note_on_c, 9, 40, 107
2, 149522, Note_on_c, 9, 43, 112
2, 149760, Note_on_c, 9, 36, 127
2, 149761, Note_on_c, 9, 40, 114
2, 149765, Note_on_c, 9, 41, 111
2, 149996, Note_on_c, 9, 41, 116
2, 150000, Note_on_c, 9, 36, 127
2, 150000, Note_on_c, 9, 40, 110
2, 150232, Note_on_c, 9, 40, 117
2, 150240, Note_on_c, 9, 36, 127
2, 150240, Note_on_c, 9, 41, 112
2, 150476, Note_on_c, 9, 40, 119
2, 150480, Note_on_c, 9, 41, 116
2, 150480, Note_on_c, 9, 36, 127
2, 150715, Note_on_c, 9, 41, 121
2, 150720, Note_on_c, 9, 36, 127
2, 150724, Note_on_c, 9, 40, 117
2, 150955, Note_on_c, 9, 41, 120
2, 150959, Note_on_c, 9, 40, 120
2, 150960, Note_on_c, 9, 36, 127
2, 151199, Note_on_c, 9, 40, 125
2, 151200, Note_on_c, 9, 36, 127
2, 151203, Note_on_c, 9, 41, 120
2, 151440, Note_on_c, 9, 36, 127
2, 151442, Note_on_c, 9, 40, 122
2, 151442, Note_on_c, 9, 41, 127
2, 151680, Note_on_c, 9, 36, 127
2, 151680, Note_on_c, 9, 57, 127
2, 151920, Note_on_c, 9, 36, 127
2, 151920, Note_on_c, 9, 57, 122
2, 152160, Note_on_c, 9, 40, 127
2, 152160, Note_on_c, 9, 57, 127
2, 152400, Note_on_c, 9, 36, 127
2, 152400, Note_on_c, 9, 57, 124
2, 152640, Note_on_c, 9, 36, 127
2, 152640, Note_on_c, 9, 57, 127
2, 152880, Note_on_c, 9, 36, 127
2, 152880, Note_on_c, 9, 57, 122
2, 153120, Note_on_c, 9, 40, 127
2, 153120, Note_on_c, 9, 57, 127
2, 153360, Note_on_c, 9, 36, 127
2, 153360, Note_on_c, 9, 57, 122
2, 153600, Note_on_c, 9, 36, 127
2, 153600, Note_on_c, 9, 49, 127
2, 153600, Note_on_c, 9, 57, 127
2, 153840, Note_on_c, 9, 36, 127
2, 153840, Note_on_c, 9, 57, 122
2, 154080, Note_on_c, 9, 40, 127
2, 154080, Note_on_c, 9, 57, 127
2, 154320, Note_on_c, 9, 36, 127
2, 154320, Note_on_c, 9, 57, 124
2, 154560, Note_on_c, 9, 36, 127
2, 154560, Note_on_c, 9, 57, 127
2, 154800, Note_on_c, 9, 36, 127
2, 154800, Note_on_c, 9, 57, 122
2, 155040, Note_on_c, 9, 40, 127
2, 155040, Note_on_c, 9, 57, 127
2, 155280, Note_on_c, 9, 36, 127
2, 155280, Note_on_c, 9, 57, 122
2, 155520, Note_on_c, 9, 36, 127
2, 155520, Note_on_c, 9, 49, 127
2, 155520, Note_on_c, 9, 57, 127
2, 155760, Note_on_c, 9, 36, 127
2, 155760, Note_on_c, 9, 57, 122
2, 156000, Note_on_c, 9, 40, 127
2, 156000, Note_on_c, 9, 57, 127
2, 156240, Note_on_c, 9, 36, 127
2, 156240, Note_on_c, 9, 57, 124
2, 156480, Note_on_c, 9, 36, 127
2, 156480, Note_on_c, 9, 52, 127
2, 156720, Note_on_c, 9, 36, 127
2, 156720, Note_on_c, 9, 57, 122
2, 156960, Note_on_c, 9, 40, 127
2, 156960, Note_on_c, 9, 49, 127
2, 157200, Note_on_c, 9, 36, 127
2, 157200, Note_on_c, 9, 57, 121
2, 157440, Note_on_c, 9, 36, 127
2, 157440, Note_on_c, 9, 52, 127
2, 157680, Note_on_c, 9, 36, 127
2, 157680, Note_on_c, 9, 57, 122
2, 157920, Note_on_c, 9, 40, 127
2, 157920, Note_on_c, 9, 57, 127
2, 158160, Note_on_c, 9, 36, 127
2, 158160, Note_on_c, 9, 57, 124
2, 158400, Note_on_c, 9, 36, 127
2, 158400, Note_on_c, 9, 57, 127
2, 158640, Note_on_c, 9, 36, 127
2, 158640, Note_on_c, 9, 57, 122
2, 158880, Note_on_c, 9, 40, 127
2, 158880, Note_on_c, 9, 57, 127
2, 159120, Note_on_c, 9, 36, 127
2, 159120, Note_on_c, 9, 57, 122
2, 159360, Note_on_c, 9, 36, 127
2, 159360, Note_on_c, 9, 49, 127
2, 159360, Note_on_c, 9, 57, 127
2, 159600, Note_on_c, 9, 36, 127
2, 159600, Note_on_c, 9, 57, 122
2, 159840, Note_on_c, 9, 40, 127
2, 159840, Note_on_c, 9, 57, 127
2, 160080, Note_on_c, 9, 36, 127
2, 160080, Note_on_c, 9, 57, 124
2, 160320, Note_on_c, 9, 36, 127
2, 160320, Note_on_c, 9, 49, 127
2, 160320, Note_on_c, 9, 57, 127
2, 160560, Note_on_c, 9, 36, 127
2, 160560, Note_on_c, 9, 57, 122
2, 160800, Note_on_c, 9, 40, 127
2, 160800, Note_on_c, 9, 49, 127
2, 161040, Note_on_c, 9, 36, 127
2, 161040, Note_on_c, 9, 49, 122
2, 161280, Note_on_c, 9, 36, 127
2, 161280, Note_on_c, 9, 49, 127
2, 161520, Note_on_c, 9, 36, 127
2, 161520, Note_on_c, 9, 49, 122
2, 161760, Note_on_c, 9, 40, 127
2, 161760, Note_on_c, 9, 52, 127
2, 162000, Note_on_c, 9, 36, 127
2, 162000, Note_on_c, 9, 57, 124
2, 162240, Note_on_c, 9, 36, 127
2, 162240, Note_on_c, 9, 49, 127
2, 162480, Note_on_c, 9, 36, 127
2, 162480, Note_on_c, 9, 52, 122
2, 162720, Note_on_c, 9, 40, 127
2, 162720, Note_on_c, 9, 52, 127
2, 162960, Note_on_c, 9, 36, 127
2, 162960, Note_on_c, 9, 57, 122
2, 163200, Note_on_c, 9, 36, 127
2, 163200, Note_on_c, 9, 49, 127
2, 163200, Note_on_c, 9, 57, 127
2, 163440, Note_on_c, 9, 36, 127
2, 163440, Note_on_c, 9, 57, 122
2, 163680, Note_on_c, 9, 40, 127
2, 163680, Note_on_c, 9, 57, 127
2, 163920, Note_on_c, 9, 36, 127
2, 163920, Note_on_c, 9, 57, 124
2, 164160, Note_on_c, 9, 36, 127
2, 164160, Note_on_c, 9, 49, 127
2, 164160, Note_on_c, 9, 57, 127
2, 164400, Note_on_c, 9, 36, 127
2, 164400, Note_on_c, 9, 57, 122
2, 164640, Note_on_c, 9, 40, 127
2, 164640, Note_on_c, 9, 57, 127
2, 164880, Note_on_c, 9, 36, 127
2, 164880, Note_on_c, 9, 57, 122
2, 165120, Note_on_c, 9, 36, 127
2, 165120, Note_on_c, 9, 49, 127
2, 165120, Note_on_c, 9, 57, 127
2, 165360, Note_on_c, 9, 36, 127
2, 165360, Note_on_c, 9, 57, 122
2, 165600, Note_on_c, 9, 40, 127
2, 165600, Note_on_c, 9, 57, 127
2, 165840, Note_on_c, 9, 36, 127
2, 165840, Note_on_c, 9, 57, 124
2, 166080, Note_on_c, 9, 36, 127
2, 166080, Note_on_c, 9, 49, 127
2, 166080, Note_on_c, 9, 57, 127
2, 166320, Note_on_c, 9, 36, 127
2, 166320, Note_on_c, 9, 57, 122
2, 166560, Note_on_c, 9, 40, 127
2, 166560, Note_on_c, 9, 49, 127
2, 166800, Note_on_c, 9, 36, 127
2, 166800, Note_on_c, 9, 57, 122
2, 167040, Note_on_c, 9, 36, 127
2, 167040, Note_on_c, 9, 49, 127
2, 167040, Note_on_c, 9, 57, 127
2, 167280, Note_on_c, 9, 36, 127
2, 167280, Note_on_c, 9, 57, 122
2, 167520, Note_on_c, 9, 40, 127
2, 167520, Note_on_c, 9, 49, 127
2, 167760, Note_on_c, 9, 36, 127
2, 167760, Note_on_c, 9, 57, 124
2, 168000, Note_on_c, 9, 36, 127
2, 168000, Note_on_c, 9, 52, 127
2, 168240, Note_on_c, 9, 36, 127
2, 168240, Note_on_c, 9, 57, 122
2, 168480, Note_on_c, 9, 40, 127
2, 168480, Note_on_c, 9, 49, 127
2, 168720, Note_on_c, 9, 36, 127
2, 168720, Note_on_c, 9, 49, 122
2, 168960, Note_on_c, 9, 36, 127
2, 168960, Note_on_c, 9, 49, 127
2, 169200, Note_on_c, 9, 36, 127
2, 169200, Note_on_c, 9, 49, 122
2, 169440, Note_on_c, 9, 40, 127
2, 169440, Note_on_c, 9, 57, 127
2, 169680, Note_on_c, 9, 36, 127
2, 169680, Note_on_c, 9, 49, 124
2, 169920, Note_on_c, 9, 36, 127
2, 169920, Note_on_c, 9, 57, 127
2, 170160, Note_on_c, 9, 36, 127
2, 170160, Note_on_c, 9, 49, 122
2, 170400, Note_on_c, 9, 40, 127
2, 170400, Note_on_c, 9, 57, 127
2, 170640, Note_on_c, 9, 36, 127
2, 170640, Note_on_c, 9, 49, 122
2, 170880, Note_on_c, 9, 36, 127
2, 170880, Note_on_c, 9, 57, 127
2, 171120, Note_on_c, 9, 36, 127
2, 171120, Note_on_c, 9, 49, 122
2, 171360, Note_on_c, 9, 40, 127
2, 171360, Note_on_c, 9, 57, 127
2, 171600, Note_on_c, 9, 36, 127
2, 171600, Note_on_c, 9, 49, 124
2, 171840, Note_on_c, 9, 36, 127
2, 171840, Note_on_c, 9, 57, 127
2, 172080, Note_on_c, 9, 36, 127
2, 172080, Note_on_c, 9, 49, 122
2, 172320, Note_on_c, 9, 40, 127
2, 172320, Note_on_c, 9, 57, 127
2, 172560, Note_on_c, 9, 36, 127
2, 172560, Note_on_c, 9, 49, 122
2, 172800, Note_on_c, 9, 36, 127
2, 172804, Note_on_c, 9, 40, 127
2, 172804, Note_on_c, 9, 41, 127
2, 173037, Note_on_c, 9, 40, 127
2, 173037, Note_on_c, 9, 41, 127
2, 173040, Note_on_c, 9, 36, 127
2, 173280, Note_on_c, 9, 36, 127
2, 173280, Note_on_c, 9, 40, 127
2, 173286, Note_on_c, 9, 41, 127
2, 173513, Note_on_c, 9, 41, 127
2, 173520, Note_on_c, 9, 36, 127
2, 173524, Note_on_c, 9, 40, 127