2, 768, Note_on_c, 9, 37, 50
2, 1152, Note_on_c, 9, 37, 50
2, 1536, Note_on_c, 9, 37, 50
2, 1920, Note_on_c, 9, 37, 50
2, 2304, Note_on_c, 9, 42, 50
2, 2688, Note_on_c, 9, 42, 50
2, 3072, Note_on_c, 9, 42, 50
2, 3456, Note_on_c, 9, 42, 50
2, 3840, Note_on_c, 9, 42, 50
2, 4224, Note_on_c, 9, 42, 50
2, 4608, Note_on_c, 9, 42, 50
2, 4992, Note_on_c, 9, 42, 50
2, 5376, Note_on_c, 9, 42, 50
2, 5760, Note_on_c, 9, 42, 50
2, 6144, Note_on_c, 9, 42, 50
2, 6528, Note_on_c, 9, 42, 50
2, 7008, Note_on_c, 9, 36, 50
2, 7200, Note_on_c, 9, 36, 50
2, 7392, Note_on_c, 9, 36, 50
2, 7584, Note_on_c, 9, 36, 50
2, 7776, Note_on_c, 9, 36, 50
2, 7968, Note_on_c, 9, 36, 50
2, 8256, Note_on_c, 9, 36, 50
2, 8448, Note_on_c, 9, 49, 50
2, 8448, Note_on_c, 9, 36, 50
2, 8736, Note_on_c, 9, 36, 50
2, 8832, Note_on_c, 9, 38, 50
2, 9120, Note_on_c, 9, 38, 50
2, 9216, Note_on_c, 9, 36, 50
2, 9312, Note_on_c, 9, 38, 50
2, 9408, Note_on_c, 9, 36, 50
2, 9504, Note_on_c, 9, 36, 50
2, 9600, Note_on_c, 9, 38, 50
2, 9792, Note_on_c, 9, 36, 50
2, 9984, Note_on_c, 9, 36, 50
2, 9984, Note_on_c, 9, 49, 50
2, 10272, Note_on_c, 9, 36, 50
2, 10368, Note_on_c, 9, 38, 50
2, 10656, Note_on_c, 9, 38, 50
2, 10752, Note_on_c, 9, 36, 50
2, 10848, Note_on_c, 9, 38, 50
2, 10944, Note_on_c, 9, 36, 50
2, 11040, Note_on_c, 9, 36, 50
2, 11136, Note_on_c, 9, 38, 50
2, 11328, Note_on_c, 9, 36, 50
2, 11520, Note_on_c, 9, 36, 50
2, 11520, Note_on_c, 9, 49, 50
2, 11808, Note_on_c, 9, 36, 50
2, 11904, Note_on_c, 9, 38, 50
2, 12192, Note_on_c, 9, 38, 50
2, 12288, Note_on_c, 9, 36, 50
2, 12384, Note_on_c, 9, 38, 50
2, 12480, Note_on_c, 9, 36, 50
2, 12576, Note_on_c, 9, 36, 50
2, 12672, Note_on_c, 9, 38, 50
2, 12864, Note_on_c, 9, 36, 50
2, 13056, Note_on_c, 9, 36, 50
2, 13056, Note_on_c, 9, 49, 50
2, 13344, Note_on_c, 9, 36, 50
2, 13440, Note_on_c, 9, 38, 50
2, 13728, Note_on_c, 9, 38, 50
2, 13824, Note_on_c, 9, 36, 50
2, 13920, Note_on_c, 9, 38, 50
2, 14016, Note_on_c, 9, 36, 50
2, 14112, Note_on_c, 9, 36, 50
2, 14208, Note_on_c, 9, 38, 50
2, 14400, Note_on_c, 9, 36, 50
2, 14592, Note_on_c, 9, 36, 50
2, 14592, Note_on_c, 9, 49, 50
2, 14880, Note_on_c, 9, 36, 50
2, 14976, Note_on_c, 9, 38, 50
2, 15264, Note_on_c, 9, 38, 50
2, 15360, Note_on_c, 9, 36, 50
2, 15456, Note_on_c, 9, 38, 50
2, 15552, Note_on_c, 9, 36, 50
2, 15648, Note_on_c, 9, 36, 50
2, 15744, Note_on_c, 9, 38, 50
2, 15936, Note_on_c, 9, 36, 50
2, 16128, Note_on_c, 9, 49, 50
2, 16128, Note_on_c, 9, 36, 50
2, 16416, Note_on_c, 9, 36, 50
2, 16512, Note_on_c, 9, 38, 50
2, 16800, Note_on_c, 9, 38, 50
2, 16896, Note_on_c, 9, 36, 50
2, 16992, Note_on_c, 9, 38, 50
2, 17088, Note_on_c, 9, 36, 50
2, 17184, Note_on_c, 9, 36, 50
2, 17280, Note_on_c, 9, 38, 50
2, 17472, Note_on_c, 9, 36, 50
2, 17664, Note_on_c, 9, 36, 50
2, 17664, Note_on_c, 9, 49, 50
2, 17952, Note_on_c, 9, 36, 50
2, 18048, Note_on_c, 9, 38, 50
2, 18336, Note_on_c, 9, 38, 50
2, 18432, Note_on_c, 9, 36, 50
2, 18528, Note_on_c, 9, 38, 50
2, 18624, Note_on_c, 9, 36, 50
2, 18720, Note_on_c, 9, 36, 50
2, 18816, Note_on_c, 9, 38, 50
2, 19008, Note_on_c, 9, 36, 50
2, 19200, Note_on_c, 9, 49, 50
2, 19200, Note_on_c, 9, 36, 50
2, 19488, Note_on_c, 9, 36, 50
2, 19584, Note_on_c, 9, 38, 50
2, 19968, Note_on_c, 9, 36, 50
2, 20262, Note_on_c, 9, 38, 50
2, 20355, Note_on_c, 9, 38, 50
2, 20355, Note_on_c, 9, 38, 50
2, 20548, Note_on_c, 9, 38, 50
2, 20642, Note_on_c, 9, 38, 50
2, 20736, Note_on_c, 9, 36, 50
2, 20736, Note_on_c, 9, 42, 50
2, 20928, Note_on_c, 9, 42, 50
2, 20928, Note_on_c, 9, 36, 50
2, 21120, Note_on_c, 9, 42, 50
2, 21120, Note_on_c, 9, 38, 50
2, 21312, Note_on_c, 9, 42, 50
2, 21504, Note_on_c, 9, 36, 50
2, 21504, Note_on_c, 9, 42, 50
2, 21696, Note_on_c, 9, 36, 50
2, 21696, Note_on_c, 9, 42, 50
2, 21888, Note_on_c, 9, 38, 50
2, 21888, Note_on_c, 9, 42, 50
2, 22080, Note_on_c, 9, 42, 50
2, 22272, Note_on_c, 9, 36, 50
2, 22272, Note_on_c, 9, 42, 50
2, 22464, Note_on_c, 9, 36, 50
2, 22464, Note_on_c, 9, 42, 50
2, 22656, Note_on_c, 9, 42, 50
2, 22656, Note_on_c, 9, 38, 50
2, 22848, Note_on_c, 9, 42, 50
2, 23040, Note_on_c, 9, 36, 50
2, 23040, Note_on_c, 9, 42, 50
2, 23232, Note_on_c, 9, 36, 50
2, 23232, Note_on_c, 9, 42, 50
2, 23424, Note_on_c, 9, 42, 50
2, 23424, Note_on_c, 9, 38, 50
2, 23616, Note_on_c, 9, 46, 50
2, 23808, Note_on_c, 9, 36, 50
2, 23808, Note_on_c, 9, 42, 50
2, 24000, Note_on_c, 9, 42, 50
2, 24000, Note_on_c, 9, 36, 50
2, 24192, Note_on_c, 9, 42, 50
2, 24192, Note_on_c, 9, 38, 50
2, 24384, Note_on_c, 9, 42, 50
2, 24576, Note_on_c, 9, 42, 50
2, 24576, Note_on_c, 9, 36, 50
2, 24768, Note_on_c, 9, 42, 50
2, 24768, Note_on_c, 9, 36, 50
2, 24960, Note_on_c, 9, 38, 50
2, 24960, Note_on_c, 9, 42, 50
2, 25152, Note_on_c, 9, 42, 50
2, 25344, Note_on_c, 9, 36, 50
2, 25344, Note_on_c, 9, 42, 50
2, 25536, Note_on_c, 9, 42, 50
2, 25536, Note_on_c, 9, 36, 50
2, 25728, Note_on_c, 9, 38, 50
2, 25728, Note_on_c, 9, 42, 50
2, 25920, Note_on_c, 9, 42, 50
2, 26112, Note_on_c, 9, 42, 50
2, 26112, Note_on_c, 9, 36, 50
2, 26304, Note_on_c, 9, 42, 50
2, 26304, Note_on_c, 9, 36, 50
2, 26496, Note_on_c, 9, 38, 50
2, 26496, Note_on_c, 9, 42, 50
2, 26688, Note_on_c, 9, 46, 50
2, 26880, Note_on_c, 9, 42, 50
2, 26880, Note_on_c, 9, 36, 50
2, 27072, Note_on_c, 9, 36, 50
2, 27072, Note_on_c, 9, 42, 50
2, 27264, Note_on_c, 9, 38, 50
2, 27264, Note_on_c, 9, 42, 50
2, 27456, Note_on_c, 9, 42, 50
2, 27648, Note_on_c, 9, 36, 50
2, 27648, Note_on_c, 9, 42, 50
2, 27840, Note_on_c, 9, 36, 50
2, 27840, Note_on_c, 9, 42, 50
2, 28032, Note_on_c, 9, 42, 50
2, 28032, Note_on_c, 9, 38, 50
2, 28224, Note_on_c, 9, 42, 50
2, 28416, Note_on_c, 9, 36, 50
2, 28416, Note_on_c, 9, 42, 50
2, 28608, Note_on_c, 9, 36, 50
2, 28608, Note_on_c, 9, 42, 50
2, 28800, Note_on_c, 9, 38, 50
2, 28800, Note_on_c, 9, 42, 50
2, 28992, Note_on_c, 9, 42, 50
2, 29184, Note_on_c, 9, 42, 50
2, 29184, Note_on_c, 9, 36, 50
2, 29376, Note_on_c, 9, 36, 50
2, 29376, Note_on_c, 9, 42, 50
2, 29568, Note_on_c, 9, 38, 50
2, 29568, Note_on_c, 9, 42, 50
2, 29760, Note_on_c, 9, 46, 50
2, 29952, Note_on_c, 9, 36, 50
2, 29952, Note_on_c, 9, 42, 50
2, 30144, Note_on_c, 9, 42, 50
2, 30144, Note_on_c, 9, 36, 50
2, 30336, Note_on_c, 9, 38, 50
2, 30336, Note_on_c, 9, 42, 50
2, 30528, Note_on_c, 9, 42, 50
2, 30720, Note_on_c, 9, 36, 50
2, 30720, Note_on_c, 9, 42, 50
2, 30912, Note_on_c, 9, 42, 50
2, 30912, Note_on_c, 9, 36, 50
2, 31104, Note_on_c, 9, 38, 50
2, 31104, Note_on_c, 9, 42, 50
2, 31296, Note_on_c, 9, 42, 50
2, 31488, Note_on_c, 9, 42, 50
2, 31488, Note_on_c, 9, 36, 50
2, 31680, Note_on_c, 9, 42, 50
2, 31680, Note_on_c, 9, 36, 50
2, 31872, Note_on_c, 9, 38, 50
2, 31872, Note_on_c, 9, 42, 50
2, 32064, Note_on_c, 9, 42, 50
2, 32256, Note_on_c, 9, 36, 50
2, 32256, Note_on_c, 9, 42, 50
2, 32448, Note_on_c, 9, 42, 50
2, 32448, Note_on_c, 9, 36, 50
2, 32640, Note_on_c, 9, 38, 50
2, 32640, Note_on_c, 9, 42, 50
2, 32832, Note_on_c, 9, 46, 50
2, 33024, Note_on_c, 9, 36, 50
2, 33024, Note_on_c, 9, 42, 50
2, 33216, Note_on_c, 9, 42, 50
2, 33216, Note_on_c, 9, 36, 50
2, 33408, Note_on_c, 9, 38, 50
2, 33408, Note_on_c, 9, 42, 50
2, 33600, Note_on_c, 9, 42, 50
2, 33792, Note_on_c, 9, 36, 50
2, 33792, Note_on_c, 9, 42, 50
2, 33984, Note_on_c, 9, 42, 50
2, 33984, Note_on_c, 9, 36, 50
2, 34176, Note_on_c, 9, 38, 50
2, 34176, Note_on_c, 9, 42, 50
2, 34368, Note_on_c, 9, 42, 50
2, 34560, Note_on_c, 9, 42, 50
2, 34560, Note_on_c, 9, 36, 50
2, 34752, Note_on_c, 9, 36, 50
2, 34752, Note_on_c, 9, 42, 50
2, 34944, Note_on_c, 9, 38, 50
2, 34944, Note_on_c, 9, 42, 50
2, 35136, Note_on_c, 9, 42, 50
2, 35328, Note_on_c, 9, 36, 50
2, 35328, Note_on_c, 9, 42, 50
2, 35520, Note_on_c, 9, 42, 50
2, 35520, Note_on_c, 9, 36, 50
2, 35712, Note_on_c, 9, 42, 50
2, 35712, Note_on_c, 9, 38, 50
2, 35904, Note_on_c, 9, 46, 50
2, 36096, Note_on_c, 9, 42, 50
2, 36096, Note_on_c, 9, 36, 50
2, 36288, Note_on_c, 9, 36, 50
2, 36288, Note_on_c, 9, 42, 50
2, 36480, Note_on_c, 9, 38, 50
2, 36480, Note_on_c, 9, 42, 50
2, 36672, Note_on_c, 9, 42, 50
2, 36864, Note_on_c, 9, 42, 50
2, 36864, Note_on_c, 9, 36, 50
2, 37056, Note_on_c, 9, 36, 50
2, 37056, Note_on_c, 9, 42, 50
2, 37248, Note_on_c, 9, 38, 50
2, 37248, Note_on_c, 9, 42, 50
2, 37440, Note_on_c, 9, 42, 50
2, 37632, Note_on_c, 9, 42, 50
2, 37632, Note_on_c, 9, 36, 50
2, 37824, Note_on_c, 9, 42, 50
2, 37824, Note_on_c, 9, 36, 50
2, 38016, Note_on_c, 9, 38, 50
2, 38016, Note_on_c, 9, 42, 50
2, 38208, Note_on_c, 9, 42, 50
2, 38400, Note_on_c, 9, 36, 50
2, 38400, Note_on_c, 9, 42, 50
2, 38592, Note_on_c, 9, 42, 50
2, 38592, Note_on_c, 9, 36, 50
2, 38784, Note_on_c, 9, 38, 50
2, 38784, Note_on_c, 9, 46, 50
2, 39168, Note_on_c, 9, 36, 50
2, 39360, Note_on_c, 9, 42, 50
2, 39360, Note_on_c, 9, 36, 50
2, 39552, Note_on_c, 9, 38, 50
2, 39552, Note_on_c, 9, 42, 50
2, 39744, Note_on_c, 9, 42, 50
2, 39936, Note_on_c, 9, 42, 50
2, 39936, Note_on_c, 9, 36, 50
2, 40128, Note_on_c, 9, 42, 50
2, 40128, Note_on_c, 9, 36, 50
2, 40320, Note_on_c, 9, 38, 50
2, 40320, Note_on_c, 9, 42, 50
2, 40512, Note_on_c, 9, 42, 50
2, 40704, Note_on_c, 9, 36, 50
2, 40704, Note_on_c, 9, 42, 50
2, 40896, Note_on_c, 9, 42, 50
2, 40896, Note_on_c, 9, 36, 50
2, 41088, Note_on_c, 9, 38, 50
2, 41088, Note_on_c, 9, 42, 50
2, 41280, Note_on_c, 9, 42, 50
2, 41472, Note_on_c, 9, 42, 50
2, 41472, Note_on_c, 9, 36, 50
2, 41664, Note_on_c, 9, 42, 50
2, 41664, Note_on_c, 9, 36, 50
2, 41856, Note_on_c, 9, 38, 50
2, 41856, Note_on_c, 9, 42, 50
2, 42048, Note_on_c, 9, 42, 50
2, 42240, Note_on_c, 9, 36, 50
2, 42432, Note_on_c, 9, 36, 50
2, 42432, Note_on_c, 9, 42, 50
2, 42624, Note_on_c, 9, 38, 50
2, 42624, Note_on_c, 9, 42, 50
2, 42816, Note_on_c, 9, 42, 50
2, 43008, Note_on_c, 9, 36, 50
2, 43008, Note_on_c, 9, 42, 50
2, 43200, Note_on_c, 9, 36, 50
2, 43200, Note_on_c, 9, 42, 50
2, 43392, Note_on_c, 9, 38, 50
2, 43392, Note_on_c, 9, 42, 50
2, 43584, Note_on_c, 9, 42, 50
2, 43776, Note_on_c, 9, 42, 50
2, 43776, Note_on_c, 9, 36, 50
2, 43968, Note_on_c, 9, 42, 50
2, 43968, Note_on_c, 9, 36, 50
2, 44160, Note_on_c, 9, 38, 50
2, 44160, Note_on_c, 9, 42, 50
2, 44352, Note_on_c, 9, 42, 50
2, 44544, Note_on_c, 9, 42, 50
2, 44544, Note_on_c, 9, 36, 50
2, 44736, Note_on_c, 9, 42, 50
2, 44736, Note_on_c, 9, 36, 50
2, 44928, Note_on_c, 9, 38, 50
2, 44928, Note_on_c, 9, 42, 50
2, 45120, Note_on_c, 9, 42, 50
2, 45312, Note_on_c, 9, 36, 50
2, 45504, Note_on_c, 9, 42, 50
2, 45504, Note_on_c, 9, 36, 50
2, 45696, Note_on_c, 9, 38, 50
2, 45696, Note_on_c, 9, 42, 50
2, 45888, Note_on_c, 9, 42, 50
2, 45888, Note_on_c, 9, 36, 50
2, 46080, Note_on_c, 9, 42, 50
2, 46080, Note_on_c, 9, 36, 50
2, 46272, Note_on_c, 9, 42, 50
2, 46272, Note_on_c, 9, 36, 50
2, 46464, Note_on_c, 9, 38, 50
2, 46464, Note_on_c, 9, 42, 50
2, 46656, Note_on_c, 9, 36, 50
2, 46656, Note_on_c, 9, 42, 50
2, 46848, Note_on_c, 9, 42, 50
2, 46848, Note_on_c, 9, 36, 50
2, 47040, Note_on_c, 9, 36, 50
2, 47040, Note_on_c, 9, 42, 50
2, 47232, Note_on_c, 9, 42, 50
2, 47232, Note_on_c, 9, 38, 50
2, 47424, Note_on_c, 9, 42, 50
2, 47424, Note_on_c, 9, 36, 50
2, 47616, Note_on_c, 9, 42, 50
2, 47616, Note_on_c, 9, 36, 50
2, 47808, Note_on_c, 9, 36, 50
2, 47808, Note_on_c, 9, 42, 50
2, 48000, Note_on_c, 9, 38, 50
2, 48000, Note_on_c, 9, 42, 50
2, 48192, Note_on_c, 9, 36, 50
2, 48192, Note_on_c, 9, 42, 50
2, 48384, Note_on_c, 9, 36, 50
2, 48576, Note_on_c, 9, 42, 50
2, 48576, Note_on_c, 9, 36, 50
2, 48768, Note_on_c, 9, 42, 50
2, 48768, Note_on_c, 9, 38, 50
2, 48960, Note_on_c, 9, 42, 50
2, 48960, Note_on_c, 9, 36, 50
2, 49152, Note_on_c, 9, 42, 50
2, 49152, Note_on_c, 9, 36, 50
2, 49344, Note_on_c, 9, 36, 50
2, 49344, Note_on_c, 9, 42, 50
2, 49536, Note_on_c, 9, 38, 50
2, 49536, Note_on_c, 9, 42, 50
2, 49536, Note_on_c, 9, 38, 50
2, 49728, Note_on_c, 9, 36, 50
2, 49728, Note_on_c, 9, 42, 50
2, 49920, Note_on_c, 9, 36, 50
2, 50011, Note_on_c, 9, 38, 50
2, 50110, Note_on_c, 9, 38, 50
2, 50110, Note_on_c, 9, 38, 50
2, 50112, Note_on_c, 9, 36, 50
2, 50299, Note_on_c, 9, 38, 50
2, 50299, Note_on_c, 9, 38, 50
2, 50304, Note_on_c, 9, 36, 50
2, 50488, Note_on_c, 9, 38, 50
2, 50496, Note_on_c, 9, 36, 50
2, 50587, Note_on_c, 9, 38, 50
2, 50587, Note_on_c, 9, 38, 50
2, 50688, Note_on_c, 9, 36, 50
2, 50786, Note_on_c, 9, 38, 50
2, 50880, Note_on_c, 9, 36, 50
2, 50885, Note_on_c, 9, 38, 50
2, 50976, Note_on_c, 9, 36, 50
2, 51264, Note_on_c, 9, 36, 50
2, 51456, Note_on_c, 9, 49, 50
2, 51456, Note_on_c, 9, 36, 50
2, 51744, Note_on_c, 9, 36, 50
2, 51840, Note_on_c, 9, 38, 50
2, 52128, Note_on_c, 9, 38, 50
2, 52224, Note_on_c, 9, 36, 50
2, 52320, Note_on_c, 9, 38, 50
2, 52416, Note_on_c, 9, 36, 50
2, 52512, Note_on_c, 9, 36, 50
2, 52608, Note_on_c, 9, 38, 50
2, 52800, Note_on_c, 9, 36, 50
2, 52992, Note_on_c, 9, 36, 50
2, 52992, Note_on_c, 9, 49, 50
2, 53280, Note_on_c, 9, 36, 50
2, 53376, Note_on_c, 9, 38, 50
2, 53664, Note_on_c, 9, 38, 50
2, 53760, Note_on_c, 9, 36, 50
2, 53856, Note_on_c, 9, 38, 50
2, 53952, Note_on_c, 9, 36, 50
2, 54048, Note_on_c, 9, 36, 50
2, 54144, Note_on_c, 9, 38, 50
2, 54336, Note_on_c, 9, 36, 50
2, 54528, Note_on_c, 9, 36, 50
2, 54528, Note_on_c, 9, 49, 50
2, 54816, Note_on_c, 9, 36, 50
2, 54912, Note_on_c, 9, 38, 50
2, 55200, Note_on_c, 9, 38, 50
2, 55296, Note_on_c, 9, 36, 50
2, 55392, Note_on_c, 9, 38, 50
2, 55488, Note_on_c, 9, 36, 50
2, 55584, Note_on_c, 9, 36, 50
2, 55680, Note_on_c, 9, 38, 50
2, 55872, Note_on_c, 9, 36, 50
2, 56064, Note_on_c, 9, 49, 50
2, 56064, Note_on_c, 9, 36, 50
2, 56352, Note_on_c, 9, 36, 50
2, 56448, Note_on_c, 9, 38, 50
2, 56736, Note_on_c, 9, 38, 50
2, 56832, Note_on_c, 9, 36, 50
2, 56928, Note_on_c, 9, 38, 50
2, 57024, Note_on_c, 9, 36, 50
2, 57120, Note_on_c, 9, 36, 50
2, 57216, Note_on_c, 9, 38, 50
2, 57408, Note_on_c, 9, 36, 50
2, 57600, Note_on_c, 9, 36, 50
2, 57600, Note_on_c, 9, 49, 50
2, 57888, Note_on_c, 9, 36, 50
2, 57984, Note_on_c, 9, 38, 50
2, 58272, Note_on_c, 9, 38, 50
2, 58368, Note_on_c, 9, 36, 50
2, 58464, Note_on_c, 9, 38, 50
2, 58560, Note_on_c, 9, 36, 50
2, 58656, Note_on_c, 9, 36, 50
2, 58752, Note_on_c, 9, 38, 50
2, 58944, Note_on_c, 9, 36, 50
2, 59136, Note_on_c, 9, 49, 50
2, 59136, Note_on_c, 9, 36, 50
2, 59424, Note_on_c, 9, 36, 50
2, 59520, Note_on_c, 9, 38, 50
2, 59808, Note_on_c, 9, 38, 50
2, 59904, Note_on_c, 9, 36, 50
2, 60000, Note_on_c, 9, 38, 50
2, 60096, Note_on_c, 9, 36, 50
2, 60192, Note_on_c, 9, 36, 50
2, 60288, Note_on_c, 9, 38, 50
2, 60480, Note_on_c, 9, 36, 50
2, 60672, Note_on_c, 9, 49, 50
2, 60672, Note_on_c, 9, 36, 50
2, 60960, Note_on_c, 9, 36, 50
2, 61056, Note_on_c, 9, 38, 50
2, 61344, Note_on_c, 9, 38, 50
2, 61440, Note_on_c, 9, 36, 50
2, 61536, Note_on_c, 9, 38, 50
2, 61632, Note_on_c, 9, 36, 50
2, 61728, Note_on_c, 9, 36, 50
2, 61824, Note_on_c, 9, 38, 50
2, 62016, Note_on_c, 9, 36, 50
2, 62208, Note_on_c, 9, 36, 50
2, 62208, Note_on_c, 9, 49, 50
2, 62496, Note_on_c, 9, 36, 50
2, 62592, Note_on_c, 9, 38, 50
2, 62880, Note_on_c, 9, 38, 50
2, 62976, Note_on_c, 9, 36, 50
2, 63072, Note_on_c, 9, 38, 50
2, 63168, Note_on_c, 9, 36, 50
2, 63264, Note_on_c, 9, 36, 50
2, 63360, Note_on_c, 9, 38, 50
2, 63552, Note_on_c, 9, 36, 50
2, 63744, Note_on_c, 9, 36, 50
2, 63744, Note_on_c, 9, 49, 50
2, 64032, Note_on_c, 9, 36, 50
2, 64128, Note_on_c, 9, 49, 50
2, 64128, Note_on_c, 9, 38, 50
2, 64416, Note_on_c, 9, 38, 50
2, 64512, Note_on_c, 9, 36, 50
2, 64512, Note_on_c, 9, 49, 50
2, 64608, Note_on_c, 9, 38, 50
2, 64704, Note_on_c, 9, 36, 50
2, 64800, Note_on_c, 9, 36, 50
2, 64896, Note_on_c, 9, 38, 50
2, 64896, Note_on_c, 9, 49, 50
2, 65088, Note_on_c, 9, 36, 50
2, 65280, Note_on_c, 9, 36, 50
2, 65280, Note_on_c, 9, 49, 50
2, 65568, Note_on_c, 9, 36, 50
2, 65664, Note_on_c, 9, 38, 50
2, 65664, Note_on_c, 9, 49, 50
2, 65952, Note_on_c, 9, 38, 50
2, 66048, Note_on_c, 9, 36, 50
2, 66048, Note_on_c, 9, 49, 50
2, 66144, Note_on_c, 9, 38, 50
2, 66240, Note_on_c, 9, 36, 50
2, 66336, Note_on_c, 9, 36, 50
2, 66432, Note_on_c, 9, 38, 50
2, 66432, Note_on_c, 9, 49, 50
2, 66624, Note_on_c, 9, 36, 50
2, 66816, Note_on_c, 9, 49, 50
2, 66816, Note_on_c, 9, 36, 50
2, 67104, Note_on_c, 9, 36, 50
2, 67200, Note_on_c, 9, 38, 50
2, 67200, Note_on_c, 9, 49, 50
2, 67488, Note_on_c, 9, 38, 50
2, 67584, Note_on_c, 9, 36, 50
2, 67584, Note_on_c, 9, 49, 50
2, 67680, Note_on_c, 9, 38, 50
2, 67776, Note_on_c, 9, 36, 50
2, 67872, Note_on_c, 9, 36, 50
2, 67968, Note_on_c, 9, 38, 50
2, 67968, Note_on_c, 9, 49, 50
2, 68160, Note_on_c, 9, 36, 50
2, 68352, Note_on_c, 9, 49, 50
2, 68352, Note_on_c, 9, 36, 50
2, 68640, Note_on_c, 9, 36, 50
2, 68736, Note_on_c, 9, 38, 50
2, 68736, Note_on_c, 9, 49, 50
2, 69024, Note_on_c, 9, 36, 50
2, 69120, Note_on_c, 9, 49, 50
2, 69120, Note_on_c, 9, 38, 50
2, 69312, Note_on_c, 9, 36, 50
2, 69408, Note_on_c, 9, 36, 50
2, 69504, Note_on_c, 9, 38, 50
2, 69504, Note_on_c, 9, 49, 50
2, 69696, Note_on_c, 9, 36, 50
2, 69888, Note_on_c, 9, 49, 50
2, 69888, Note_on_c, 9, 36, 50
2, 70080, Note_on_c, 9, 36, 50
2, 70272, Note_on_c, 9, 38, 50
2, 70591, Note_on_c, 9, 45, 50
2, 70591, Note_on_c, 9, 45, 50
2, 70656, Note_on_c, 9, 38, 50
2, 70848, Note_on_c, 9, 36, 50
2, 71424, Note_on_c, 9, 36, 50
2, 71424, Note_on_c, 9, 49, 50
2, 71616, Note_on_c, 9, 36, 50
2, 71808, Note_on_c, 9, 38, 50
2, 72096, Note_on_c, 9, 36, 50
2, 72288, Note_on_c, 9, 36, 50
2, 72480, Note_on_c, 9, 36, 50
2, 72576, Note_on_c, 9, 45, 50
2, 72596, Note_on_c, 9, 43, 50
2, 72672, Note_on_c, 9, 36, 50
2, 72864, Note_on_c, 9, 36, 50
2, 72960, Note_on_c, 9, 36, 50
2, 72960, Note_on_c, 9, 49, 50
2, 73152, Note_on_c, 9, 36, 50
2, 73344, Note_on_c, 9, 38, 50
2, 73663, Note_on_c, 9, 45, 50
2, 73663, Note_on_c, 9, 45, 50
2, 73728, Note_on_c, 9, 38, 50
2, 73920, Note_on_c, 9, 36, 50
2, 74496, Note_on_c, 9, 36, 50
2, 74496, Note_on_c, 9, 49, 50
2, 74688, Note_on_c, 9, 36, 50
2, 74880, Note_on_c, 9, 38, 50
2, 74880, Note_on_c, 9, 38, 50
2, 75072, Note_on_c, 9, 36, 50
2, 75264, Note_on_c, 9, 36, 50
2, 75546, Note_on_c, 9, 38, 50
2, 75546, Note_on_c, 9, 38, 50
2, 75740, Note_on_c, 9, 38, 50
2, 75740, Note_on_c, 9, 38, 50
2, 75934, Note_on_c, 9, 38, 50
2, 76032, Note_on_c, 9, 36, 50
2, 76032, Note_on_c, 9, 42, 50
2, 76224, Note_on_c, 9, 42, 50
2, 76224, Note_on_c, 9, 36, 50
2, 76416, Note_on_c, 9, 42, 50
2, 76416, Note_on_c, 9, 38, 50
2, 76608, Note_on_c, 9, 42, 50
2, 76800, Note_on_c, 9, 42, 50
2, 76800, Note_on_c, 9, 36, 50
2, 76992, Note_on_c, 9, 36, 50
2, 76992, Note_on_c, 9, 42, 50
2, 77184, Note_on_c, 9, 38, 50
2, 77184, Note_on_c, 9, 42, 50
2, 77376, Note_on_c, 9, 42, 50
2, 77568, Note_on_c, 9, 42, 50
2, 77568, Note_on_c, 9, 36, 50
2, 77760, Note_on_c, 9, 36, 50
2, 77760, Note_on_c, 9, 42, 50
2, 77952, Note_on_c, 9, 38, 50
2, 77952, Note_on_c, 9, 42, 50
2, 78144, Note_on_c, 9, 42, 50
2, 78336, Note_on_c, 9, 42, 50
2, 78336, Note_on_c, 9, 36, 50
2, 78528, Note_on_c, 9, 42, 50
2, 78528, Note_on_c, 9, 36, 50
2, 78720, Note_on_c, 9, 38, 50
2, 78720, Note_on_c, 9, 42, 50
2, 78912, Note_on_c, 9, 46, 50
2, 79104, Note_on_c, 9, 42, 50
2, 79104, Note_on_c, 9, 36, 50
2, 79296, Note_on_c, 9, 42, 50
2, 79296, Note_on_c, 9, 36, 50
2, 79488, Note_on_c, 9, 38, 50
2, 79488, Note_on_c, 9, 42, 50
2, 79680, Note_on_c, 9, 42, 50
2, 79872, Note_on_c, 9, 36, 50
2, 79872, Note_on_c, 9, 42, 50
2, 80064, Note_on_c, 9, 36, 50
2, 80064, Note_on_c, 9, 42, 50
2, 80256, Note_on_c, 9, 38, 50
2, 80256, Note_on_c, 9, 42, 50
2, 80448, Note_on_c, 9, 42, 50
2, 80640, Note_on_c, 9, 42, 50
2, 80640, Note_on_c, 9, 36, 50
2, 80832, Note_on_c, 9, 42, 50
2, 80832, Note_on_c, 9, 36, 50
2, 81024, Note_on_c, 9, 38, 50
2, 81024, Note_on_c, 9, 42, 50
2, 81216, Note_on_c, 9, 42, 50
2, 81408, Note_on_c, 9, 36, 50
2, 81408, Note_on_c, 9, 42, 50
2, 81600, Note_on_c, 9, 42, 50
2, 81600, Note_on_c, 9, 36, 50
2, 81792, Note_on_c, 9, 38, 50
2, 81792, Note_on_c, 9, 42, 50
2, 81984, Note_on_c, 9, 46, 50
2, 82176, Note_on_c, 9, 36, 50
2, 82176, Note_on_c, 9, 42, 50
2, 82368, Note_on_c, 9, 42, 50
2, 82368, Note_on_c, 9, 36, 50
2, 82560, Note_on_c, 9, 38, 50
2, 82560, Note_on_c, 9, 42, 50
2, 82752, Note_on_c, 9, 42, 50
2, 82944, Note_on_c, 9, 42, 50
2, 82944, Note_on_c, 9, 36, 50
2, 83136, Note_on_c, 9, 36, 50
2, 83136, Note_on_c, 9, 42, 50
2, 83328, Note_on_c, 9, 38, 50
2, 83328, Note_on_c, 9, 42, 50
2, 83520, Note_on_c, 9, 42, 50
2, 83712, Note_on_c, 9, 42, 50
2, 83712, Note_on_c, 9, 36, 50
2, 83904, Note_on_c, 9, 36, 50
2, 83904, Note_on_c, 9, 42, 50
2, 84096, Note_on_c, 9, 38, 50
2, 84096, Note_on_c, 9, 42, 50
2, 84288, Note_on_c, 9, 42, 50
2, 84480, Note_on_c, 9, 36, 50
2, 84480, Note_on_c, 9, 42, 50
2, 84672, Note_on_c, 9, 42, 50
2, 84672, Note_on_c, 9, 36, 50
2, 84864, Note_on_c, 9, 38, 50
2, 84864, Note_on_c, 9, 42, 50
2, 85056, Note_on_c, 9, 46, 50
2, 85248, Note_on_c, 9, 36, 50
2, 85248, Note_on_c, 9, 42, 50
2, 85440, Note_on_c, 9, 36, 50
2, 85440, Note_on_c, 9, 42, 50
2, 85632, Note_on_c, 9, 38, 50
2, 85632, Note_on_c, 9, 42, 50
2, 85824, Note_on_c, 9, 42, 50
2, 86016, Note_on_c, 9, 36, 50
2, 86016, Note_on_c, 9, 42, 50
2, 86208, Note_on_c, 9, 36, 50
2, 86208, Note_on_c, 9, 42, 50
2, 86400, Note_on_c, 9, 38, 50
2, 86400, Note_on_c, 9, 42, 50
2, 86592, Note_on_c, 9, 42, 50
2, 86784, Note_on_c, 9, 42, 50
2, 86784, Note_on_c, 9, 36, 50
2, 86976, Note_on_c, 9, 42, 50
2, 86976, Note_on_c, 9, 36, 50
2, 87168, Note_on_c, 9, 38, 50
2, 87168, Note_on_c, 9, 42, 50
2, 87360, Note_on_c, 9, 42, 50
2, 87552, Note_on_c, 9, 36, 50
2, 87552, Note_on_c, 9, 42, 50
2, 87744, Note_on_c, 9, 36, 50
2, 87744, Note_on_c, 9, 42, 50
2, 87936, Note_on_c, 9, 42, 50
2, 87936, Note_on_c, 9, 38, 50
2, 88128, Note_on_c, 9, 46, 50
2, 88320, Note_on_c, 9, 42, 50
2, 88320, Note_on_c, 9, 36, 50
2, 88512, Note_on_c, 9, 42, 50
2, 88512, Note_on_c, 9, 36, 50
2, 88704, Note_on_c, 9, 42, 50
2, 88704, Note_on_c, 9, 38, 50
2, 88896, Note_on_c, 9, 42, 50
2, 89088, Note_on_c, 9, 42, 50
2, 89088, Note_on_c, 9, 36, 50
2, 89280, Note_on_c, 9, 42, 50
2, 89280, Note_on_c, 9, 36, 50
2, 89472, Note_on_c, 9, 38, 50
2, 89472, Note_on_c, 9, 42, 50
2, 89664, Note_on_c, 9, 42, 50
2, 89856, Note_on_c, 9, 36, 50
2, 89856, Note_on_c, 9, 42, 50
2, 90048, Note_on_c, 9, 36, 50
2, 90048, Note_on_c, 9, 42, 50
2, 90240, Note_on_c, 9, 42, 50
2, 90240, Note_on_c, 9, 38, 50
2, 90432, Note_on_c, 9, 42, 50
2, 90624, Note_on_c, 9, 42, 50
2, 90624, Note_on_c, 9, 36, 50
2, 90816, Note_on_c, 9, 36, 50
2, 90816, Note_on_c, 9, 42, 50
2, 91008, Note_on_c, 9, 38, 50
2, 91008, Note_on_c, 9, 42, 50
2, 91200, Note_on_c, 9, 46, 50
2, 91392, Note_on_c, 9, 36, 50
2, 91392, Note_on_c, 9, 42, 50
2, 91584, Note_on_c, 9, 36, 50
2, 91584, Note_on_c, 9, 42, 50
2, 91776, Note_on_c, 9, 42, 50
2, 91776, Note_on_c, 9, 38, 50
2, 91968, Note_on_c, 9, 42, 50
2, 92160, Note_on_c, 9, 42, 50
2, 92160, Note_on_c, 9, 36, 50
2, 92352, Note_on_c, 9, 42, 50
2, 92352, Note_on_c, 9, 36, 50
2, 92544, Note_on_c, 9, 42, 50
2, 92544, Note_on_c, 9, 38, 50
2, 92736, Note_on_c, 9, 42, 50
2, 92928, Note_on_c, 9, 42, 50
2, 92928, Note_on_c, 9, 36, 50
2, 93120, Note_on_c, 9, 36, 50
2, 93120, Note_on_c, 9, 42, 50
2, 93312, Note_on_c, 9, 42, 50
2, 93312, Note_on_c, 9, 38, 50
2, 93504, Note_on_c, 9, 42, 50
2, 93696, Note_on_c, 9, 36, 50
2, 93696, Note_on_c, 9, 42, 50
2, 93888, Note_on_c, 9, 42, 50
2, 93888, Note_on_c, 9, 36, 50
2, 94080, Note_on_c, 9, 38, 50
2, 94080, Note_on_c, 9, 46, 50
2, 94464, Note_on_c, 9, 36, 50
2, 94656, Note_on_c, 9, 42, 50
2, 94656, Note_on_c, 9, 36, 50
2, 94848, Note_on_c, 9, 42, 50
2, 94848, Note_on_c, 9, 38, 50
2, 95040, Note_on_c, 9, 42, 50
2, 95232, Note_on_c, 9, 42, 50
2, 95232, Note_on_c, 9, 36, 50
2, 95424, Note_on_c, 9, 42, 50
2, 95424, Note_on_c, 9, 36, 50
2, 95616, Note_on_c, 9, 38, 50
2, 95616, Note_on_c, 9, 42, 50
2, 95808, Note_on_c, 9, 42, 50
2, 96000, Note_on_c, 9, 36, 50
2, 96000, Note_on_c, 9, 42, 50
2, 96192, Note_on_c, 9, 42, 50
2, 96192, Note_on_c, 9, 36, 50
2, 96384, Note_on_c, 9, 42, 50
2, 96384, Note_on_c, 9, 38, 50
2, 96576, Note_on_c, 9, 42, 50
2, 96768, Note_on_c, 9, 36, 50
2, 96768, Note_on_c, 9, 42, 50
2, 96960, Note_on_c, 9, 42, 50
2, 96960, Note_on_c, 9, 36, 50
2, 97152, Note_on_c, 9, 42, 50
2, 97152, Note_on_c, 9, 38, 50
2, 97344, Note_on_c, 9, 42, 50
2, 97536, Note_on_c, 9, 36, 50
2, 97728, Note_on_c, 9, 42, 50
2, 97728, Note_on_c, 9, 36, 50
2, 97920, Note_on_c, 9, 42, 50
2, 97920, Note_on_c, 9, 38, 50
2, 98112, Note_on_c, 9, 42, 50
2, 98304, Note_on_c, 9, 42, 50
2, 98304, Note_on_c, 9, 36, 50
2, 98496, Note_on_c, 9, 42, 50
2, 98496, Note_on_c, 9, 36, 50
2, 98688, Note_on_c, 9, 42, 50
2, 98688, Note_on_c, 9, 38, 50
2, 98880, Note_on_c, 9, 42, 50
2, 99072, Note_on_c, 9, 36, 50
2, 99072, Note_on_c, 9, 42, 50
2, 99264, Note_on_c, 9, 42, 50
2, 99264, Note_on_c, 9, 36, 50
2, 99456, Note_on_c, 9, 42, 50
2, 99456, Note_on_c, 9, 38, 50
2, 99648, Note_on_c, 9, 42, 50
2, 99840, Note_on_c, 9, 42, 50
2, 99840, Note_on_c, 9, 36, 50
2, 100032, Note_on_c, 9, 36, 50
2, 100032, Note_on_c, 9, 42, 50
2, 100224, Note_on_c, 9, 42, 50
2, 100224, Note_on_c, 9, 38, 50
2, 100416, Note_on_c, 9, 42, 50
2, 100608, Note_on_c, 9, 36, 50
2, 100800, Note_on_c, 9, 42, 50
2, 100800, Note_on_c, 9, 36, 50
2, 100992, Note_on_c, 9, 42, 50
2, 100992, Note_on_c, 9, 38, 50
2, 101184, Note_on_c, 9, 36, 50
2, 101184, Note_on_c, 9, 42, 50
2, 101376, Note_on_c, 9, 36, 50
2, 101376, Note_on_c, 9, 42, 50
2, 101568, Note_on_c, 9, 36, 50
2, 101568, Note_on_c, 9, 42, 50
2, 101760, Note_on_c, 9, 42, 50
2, 101760, Note_on_c, 9, 38, 50
2, 101952, Note_on_c, 9, 42, 50
2, 101952, Note_on_c, 9, 36, 50
2, 102144, Note_on_c, 9, 36, 50
2, 102144, Note_on_c, 9, 42, 50
2, 102336, Note_on_c, 9, 42, 50
2, 102336, Note_on_c, 9, 36, 50
2, 102528, Note_on_c, 9, 38, 50
2, 102528, Note_on_c, 9, 42, 50
2, 102720, Note_on_c, 9, 42, 50
2, 102720, Note_on_c, 9, 36, 50
2, 102912, Note_on_c, 9, 36, 50
2, 102912, Note_on_c, 9, 42, 50
2, 103104, Note_on_c, 9, 42, 50
2, 103104, Note_on_c, 9, 36, 50
2, 103296, Note_on_c, 9, 42, 50
2, 103296, Note_on_c, 9, 38, 50
2, 103488, Note_on_c, 9, 42, 50
2, 103488, Note_on_c, 9, 36, 50
2, 103680, Note_on_c, 9, 36, 50
2, 103872, Note_on_c, 9, 42, 50
2, 103872, Note_on_c, 9, 36, 50
2, 104064, Note_on_c, 9, 38, 50
2, 104064, Note_on_c, 9, 42, 50
2, 104256, Note_on_c, 9, 42, 50
2, 104256, Note_on_c, 9, 36, 50
2, 104448, Note_on_c, 9, 36, 50
2, 104448, Note_on_c, 9, 42, 50
2, 104640, Note_on_c, 9, 42, 50
2, 104640, Note_on_c, 9, 36, 50
2, 104832, Note_on_c, 9, 42, 50
2, 104832, Note_on_c, 9, 38, 50
2, 104832, Note_on_c, 9, 38, 50
2, 105024, Note_on_c, 9, 36, 50
2, 105024, Note_on_c, 9, 42, 50
2, 105216, Note_on_c, 9, 36, 50
2, 105307, Note_on_c, 9, 38, 50
2, 105406, Note_on_c, 9, 38, 50
2, 105406, Note_on_c, 9, 38, 50
2, 105408, Note_on_c, 9, 36, 50
2, 105595, Note_on_c, 9, 38, 50
2, 105595, Note_on_c, 9, 38, 50
2, 105600, Note_on_c, 9, 36, 50
2, 105784, Note_on_c, 9, 38, 50
2, 105792, Note_on_c, 9, 36, 50
2, 105883, Note_on_c, 9, 38, 50
2, 105883, Note_on_c, 9, 38, 50
2, 105984, Note_on_c, 9, 36, 50
2, 106082, Note_on_c, 9, 38, 50
2, 106176, Note_on_c, 9, 36, 50
2, 106181, Note_on_c, 9, 38, 50
2, 106272, Note_on_c, 9, 36, 50
2, 106560, Note_on_c, 9, 36, 50
2, 106752, Note_on_c, 9, 36, 50
2, 106752, Note_on_c, 9, 49, 50
2, 107040, Note_on_c, 9, 36, 50
2, 107136, Note_on_c, 9, 38, 50
2, 107424, Note_on_c, 9, 38, 50
2, 107520, Note_on_c, 9, 36, 50
2, 107616, Note_on_c, 9, 38, 50
2, 107712, Note_on_c, 9, 36, 50
2, 107808, Note_on_c, 9, 36, 50
2, 107904, Note_on_c, 9, 38, 50
2, 108096, Note_on_c, 9, 36, 50
2, 108288, Note_on_c, 9, 49, 50
2, 108288, Note_on_c, 9, 36, 50
2, 108576, Note_on_c, 9, 36, 50
2, 108672, Note_on_c, 9, 38, 50
2, 108960, Note_on_c, 9, 38, 50
2, 109056, Note_on_c, 9, 36, 50
2, 109152, Note_on_c, 9, 38, 50
2, 109248, Note_on_c, 9, 36, 50
2, 109344, Note_on_c, 9, 36, 50
2, 109440, Note_on_c, 9, 38, 50
2, 109632, Note_on_c, 9, 36, 50
2, 109824, Note_on_c, 9, 49, 50
2, 109824, Note_on_c, 9, 36, 50
2, 110112, Note_on_c, 9, 36, 50
2, 110208, Note_on_c, 9, 38, 50
2, 110496, Note_on_c, 9, 38, 50
2, 110592, Note_on_c, 9, 36, 50
2, 110688, Note_on_c, 9, 38, 50
2, 110784, Note_on_c, 9, 36, 50
2, 110880, Note_on_c, 9, 36, 50
2, 110976, Note_on_c, 9, 38, 50
2, 111168, Note_on_c, 9, 36, 50
2, 111360, Note_on_c, 9, 49, 50
2, 111360, Note_on_c, 9, 36, 50
2, 111648, Note_on_c, 9, 36, 50
2, 111744, Note_on_c, 9, 38, 50
2, 112032, Note_on_c, 9, 38, 50
2, 112128, Note_on_c, 9, 36, 50
2, 112224, Note_on_c, 9, 38, 50
2, 112320, Note_on_c, 9, 36, 50
2, 112416, Note_on_c, 9, 36, 50
2, 112512, Note_on_c, 9, 38, 50
2, 112704, Note_on_c, 9, 36, 50
2, 112896, Note_on_c, 9, 49, 50
2, 112896, Note_on_c, 9, 36, 50
2, 113184, Note_on_c, 9, 36, 50
2, 113280, Note_on_c, 9, 38, 50
2, 113568, Note_on_c, 9, 38, 50
2, 113664, Note_on_c, 9, 36, 50
2, 113760, Note_on_c, 9, 38, 50
2, 113856, Note_on_c, 9, 36, 50
2, 113952, Note_on_c, 9, 36, 50
2, 114048, Note_on_c, 9, 38, 50
2, 114240, Note_on_c, 9, 36, 50
2, 114432, Note_on_c, 9, 36, 50
2, 114432, Note_on_c, 9, 49, 50
2, 114720, Note_on_c, 9, 36, 50
2, 114816, Note_on_c, 9, 38, 50
2, 115104, Note_on_c, 9, 38, 50
2, 115200, Note_on_c, 9, 36, 50
2, 115296, Note_on_c, 9, 38, 50
2, 115392, Note_on_c, 9, 36, 50
2, 115488, Note_on_c, 9, 36, 50
2, 115584, Note_on_c, 9, 38, 50
2, 115776, Note_on_c, 9, 36, 50
2, 115968, Note_on_c, 9, 36, 50
2, 115968, Note_on_c, 9, 49, 50
2, 116256, Note_on_c, 9, 36, 50
2, 116352, Note_on_c, 9, 38, 50
2, 116640, Note_on_c, 9, 38, 50
2, 116736, Note_on_c, 9, 36, 50
2, 116832, Note_on_c, 9, 38, 50
2, 116928, Note_on_c, 9, 36, 50
2, 117024, Note_on_c, 9, 36, 50
2, 117120, Note_on_c, 9, 38, 50
2, 117312, Note_on_c, 9, 36, 50
2, 117504, Note_on_c, 9, 49, 50
2, 117504, Note_on_c, 9, 36, 50
2, 117792, Note_on_c, 9, 36, 50
2, 117888, Note_on_c, 9, 38, 50
2, 118176, Note_on_c, 9, 38, 50
2, 118272, Note_on_c, 9, 36, 50
2, 118368, Note_on_c, 9, 38, 50
2, 118464, Note_on_c, 9, 36, 50
2, 118560, Note_on_c, 9, 36, 50
2, 118656, Note_on_c, 9, 38, 50
2, 118848, Note_on_c, 9, 36, 50
2, 119040, Note_on_c, 9, 36, 50
2, 119040, Note_on_c, 9, 49, 50
2, 119328, Note_on_c, 9, 36, 50
2, 119424, Note_on_c, 9, 38, 50
2, 119424, Note_on_c, 9, 49, 50
2, 119712, Note_on_c, 9, 38, 50
2, 119808, Note_on_c, 9, 49, 50
2, 119808, Note_on_c, 9, 36, 50
2, 119904, Note_on_c, 9, 38, 50
2, 120000, Note_on_c, 9, 36, 50
2, 120096, Note_on_c, 9, 36, 50
2, 120192, Note_on_c, 9, 38, 50
2, 120192, Note_on_c, 9, 49, 50
2, 120384, Note_on_c, 9, 36, 50
2, 120576, Note_on_c, 9, 49, 50
2, 120576, Note_on_c, 9, 36, 50
2, 120864, Note_on_c, 9, 36, 50
2, 120960, Note_on_c, 9, 38, 50
2, 120960, Note_on_c, 9, 49, 50
2, 121248, Note_on_c, 9, 38, 50
2, 121344, Note_on_c, 9, 36, 50
2, 121344, Note_on_c, 9, 49, 50
2, 121440, Note_on_c, 9, 38, 50
2, 121536, Note_on_c, 9, 36, 50
2, 121632, Note_on_c, 9, 36, 50
2, 121728, Note_on_c, 9, 38, 50
2, 121728, Note_on_c, 9, 49, 50
2, 121920, Note_on_c, 9, 36, 50
2, 122112, Note_on_c, 9, 36, 50
2, 122112, Note_on_c, 9, 49, 50
2, 122400, Note_on_c, 9, 36, 50
2, 122496, Note_on_c, 9, 38, 50
2, 122496, Note_on_c, 9, 49, 50
2, 122784, Note_on_c, 9, 38, 50
2, 122880, Note_on_c, 9, 36, 50
2, 122880, Note_on_c, 9, 49, 50
2, 122976, Note_on_c, 9, 38, 50
2, 123072, Note_on_c, 9, 36, 50
2, 123168, Note_on_c, 9, 36, 50
2, 123264, Note_on_c, 9, 38, 50
2, 123264, Note_on_c, 9, 49, 50
2, 123456, Note_on_c, 9, 36, 50
2, 123648, Note_on_c, 9, 36, 50
2, 123648, Note_on_c, 9, 49, 50
2, 123936, Note_on_c, 9, 36, 50
2, 124032, Note_on_c, 9, 38, 50
2, 124032, Note_on_c, 9, 49, 50
2, 124320, Note_on_c, 9, 36, 50
2, 124416, Note_on_c, 9, 49, 50
2, 124416, Note_on_c, 9, 38, 50
2, 124608, Note_on_c, 9, 36, 50
2, 124704, Note_on_c, 9, 36, 50
2, 124800, Note_on_c, 9, 38, 50
2, 124800, Note_on_c, 9, 49, 50
2, 124992, Note_on_c, 9, 36, 50
2, 125184, Note_on_c, 9, 49, 50
2, 125184, Note_on_c, 9, 36, 50
2, 125376, Note_on_c, 9, 36, 50
2, 125568, Note_on_c, 9, 38, 50
2, 125887, Note_on_c, 9, 45, 50
2, 125887, Note_on_c, 9, 45, 50
2, 125952, Note_on_c, 9, 38, 50
2, 126144, Note_on_c, 9, 36, 50
2, 126720, Note_on_c, 9, 49, 50
2, 126720, Note_on_c, 9, 36, 50
2, 126912, Note_on_c, 9, 36, 50
2, 127104, Note_on_c, 9, 38, 50
2, 127392, Note_on_c, 9, 36, 50
2, 127584, Note_on_c, 9, 36, 50
2, 127776, Note_on_c, 9, 36, 50
2, 127872, Note_on_c, 9, 45, 50
2, 127892, Note_on_c, 9, 43, 50
2, 127968, Note_on_c, 9, 36, 50
2, 128160, Note_on_c, 9, 36, 50
2, 128256, Note_on_c, 9, 49, 50
2, 128256, Note_on_c, 9, 36, 50
2, 128448, Note_on_c, 9, 36, 50
2, 128640, Note_on_c, 9, 38, 50
2, 128959, Note_on_c, 9, 45, 50
2, 128959, Note_on_c, 9, 45, 50
2, 129024, Note_on_c, 9, 38, 50
2, 129216, Note_on_c, 9, 36, 50
2, 129792, Note_on_c, 9, 49, 50
2, 129792, Note_on_c, 9, 36, 50
2, 129984, Note_on_c, 9, 36, 50
2, 130176, Note_on_c, 9, 38, 50
2, 130176, Note_on_c, 9, 38, 50
2, 130368, Note_on_c, 9, 36, 50
2, 130560, Note_on_c, 9, 36, 50
2, 130842, Note_on_c, 9, 38, 50
2, 130842, Note_on_c, 9, 38, 50
2, 131036, Note_on_c, 9, 38, 50
2, 131036, Note_on_c, 9, 38, 50
2, 131230, Note_on_c, 9, 38, 50
2, 131328, Note_on_c, 9, 36, 50
2, 131616, Note_on_c, 9, 36, 50
2, 131712, Note_on_c, 9, 38, 50
2, 132000, Note_on_c, 9, 38, 50
2, 132096, Note_on_c, 9, 36, 50
2, 132192, Note_on_c, 9, 38, 50
2, 132288, Note_on_c, 9, 36, 50
2, 132384, Note_on_c, 9, 36, 50
2, 132480, Note_on_c, 9, 38, 50
2, 132672, Note_on_c, 9, 36, 50
2, 132864, Note_on_c, 9, 36, 50
2, 133152, Note_on_c, 9, 36, 50
2, 133248, Note_on_c, 9, 38, 50
2, 133536, Note_on_c, 9, 38, 50
2, 133632, Note_on_c, 9, 36, 50
2, 133728, Note_on_c, 9, 38, 50
2, 133824, Note_on_c, 9, 36, 50
2, 133920, Note_on_c, 9, 36, 50
2, 134016, Note_on_c, 9, 38, 50
2, 134208, Note_on_c, 9, 36, 50
2, 134400, Note_on_c, 9, 49, 50
2, 134400, Note_on_c, 9, 36, 50
2, 134688, Note_on_c, 9, 36, 50
2, 134784, Note_on_c, 9, 38, 50
2, 135072, Note_on_c, 9, 38, 50
2, 135168, Note_on_c, 9, 36, 50
2, 135264, Note_on_c, 9, 38, 50
2, 135360, Note_on_c, 9, 36, 50
2, 135456, Note_on_c, 9, 36, 50
2, 135552, Note_on_c, 9, 38, 50
2, 135744, Note_on_c, 9, 36, 50
2, 135936, Note_on_c, 9, 36, 50
2, 136224, Note_on_c, 9, 36, 50
2, 136320, Note_on_c, 9, 38, 50
2, 136608, Note_on_c, 9, 38, 50
2, 136704, Note_on_c, 9, 36, 50
2, 136800, Note_on_c, 9, 38, 50
2, 136896, Note_on_c, 9, 36, 50
2, 136992, Note_on_c, 9, 36, 50
2, 137088, Note_on_c, 9, 38, 50
2, 137280, Note_on_c, 9, 36, 50
2, 137472, Note_on_c, 9, 36, 50
2, 137760, Note_on_c, 9, 36, 50
2, 137856, Note_on_c, 9, 38, 50
2, 138144, Note_on_c, 9, 38, 50
2, 138240, Note_on_c, 9, 36, 50
2, 138336, Note_on_c, 9, 38, 50
2, 138432, Note_on_c, 9, 36, 50
2, 138528, Note_on_c, 9, 36, 50
2, 138624, Note_on_c, 9, 38, 50
2, 138816, Note_on_c, 9, 36, 50
2, 139008, Note_on_c, 9, 36, 50
2, 139008, Note_on_c, 9, 49, 50
2, 139296, Note_on_c, 9, 36, 50
2, 139392, Note_on_c, 9, 38, 50
2, 139680, Note_on_c, 9, 38, 50
2, 139776, Note_on_c, 9, 36, 50
2, 139872, Note_on_c, 9, 38, 50
2, 139968, Note_on_c, 9, 36, 50
2, 140064, Note_on_c, 9, 36, 50
2, 140160, Note_on_c, 9, 38, 50
2, 140352, Note_on_c, 9, 36, 50
2, 140544, Note_on_c, 9, 36, 50
2, 140544, Note_on_c, 9, 49, 50
2, 140832, Note_on_c, 9, 36, 50
2, 140928, Note_on_c, 9, 38, 50
2, 141216, Note_on_c, 9, 38, 50
2, 141312, Note_on_c, 9, 36, 50
2, 141408, Note_on_c, 9, 38, 50
2, 141504, Note_on_c, 9, 36, 50
2, 141600, Note_on_c, 9, 36, 50
2, 141696, Note_on_c, 9, 38, 50
2, 141888, Note_on_c, 9, 36, 50
2, 142080, Note_on_c, 9, 36, 50
2, 142368, Note_on_c, 9, 36, 50
2, 142464, Note_on_c, 9, 38, 50
2, 142752, Note_on_c, 9, 38, 50
2, 142848, Note_on_c, 9, 36, 50
2, 142944, Note_on_c, 9, 38, 50
2, 143040, Note_on_c, 9, 36, 50
2, 143136, Note_on_c, 9, 36, 50
2, 143232, Note_on_c, 9, 38, 50
2, 143424, Note_on_c, 9, 36, 50
2, 143616, Note_on_c, 9, 36, 50
2, 143616, Note_on_c, 9, 49, 50
2, 143904, Note_on_c, 9, 36, 50
2, 144000, Note_on_c, 9, 38, 50
2, 144288, Note_on_c, 9, 38, 50
2, 144384, Note_on_c, 9, 36, 50
2, 144480, Note_on_c, 9, 38, 50
2, 144576, Note_on_c, 9, 36, 50
2, 144672, Note_on_c, 9, 36, 50
2, 144768, Note_on_c, 9, 38, 50
2, 144960, Note_on_c, 9, 36, 50
2, 145152, Note_on_c, 9, 36, 50
2, 145440, Note_on_c, 9, 36, 50
2, 145536, Note_on_c, 9, 38, 50
2, 145824, Note_on_c, 9, 38, 50
2, 145920, Note_on_c, 9, 36, 50
2, 146016, Note_on_c, 9, 38, 50
2, 146112, Note_on_c, 9, 36, 50
2, 146208, Note_on_c, 9, 36, 50
2, 146304, Note_on_c, 9, 38, 50
2, 146496, Note_on_c, 9, 36, 50
2, 146688, Note_on_c, 9, 49, 50
2, 146688, Note_on_c, 9, 36, 50
2, 146976, Note_on_c, 9, 36, 50
2, 147072, Note_on_c, 9, 38, 50
2, 147360, Note_on_c, 9, 38, 50
2, 147456, Note_on_c, 9, 36, 50
2, 147552, Note_on_c, 9, 38, 50
2, 147648, Note_on_c, 9, 36, 50
2, 147744, Note_on_c, 9, 36, 50
2, 147840, Note_on_c, 9, 38, 50
2, 148032, Note_on_c, 9, 36, 50
2, 148224, Note_on_c, 9, 36, 50
2, 148224, Note_on_c, 9, 49, 50
2, 148512, Note_on_c, 9, 36, 50
2, 148608, Note_on_c, 9, 38, 50
2, 148896, Note_on_c, 9, 38, 50
2, 148992, Note_on_c, 9, 36, 50
2, 149088, Note_on_c, 9, 38, 50
2, 149184, Note_on_c, 9, 36, 50
2, 149280, Note_on_c, 9, 36, 50
2, 149376, Note_on_c, 9, 38, 50
2, 149568, Note_on_c, 9, 36, 50
2, 149760, Note_on_c, 9, 36, 50
2, 150048, Note_on_c, 9, 36, 50
2, 150144, Note_on_c, 9, 38, 50
2, 150432, Note_on_c, 9, 38, 50
2, 150528, Note_on_c, 9, 36, 50
2, 150624, Note_on_c, 9, 38, 50
2, 150720, Note_on_c, 9, 36, 50
2, 150816, Note_on_c, 9, 36, 50
2, 150912, Note_on_c, 9, 38, 50
2, 151104, Note_on_c, 9, 36, 50
2, 151296, Note_on_c, 9, 49, 50
2, 151296, Note_on_c, 9, 36, 50
2, 151584, Note_on_c, 9, 36, 50
2, 151680, Note_on_c, 9, 38, 50
2, 151968, Note_on_c, 9, 38, 50
2, 152064, Note_on_c, 9, 36, 50
2, 152160, Note_on_c, 9, 38, 50
2, 152256, Note_on_c, 9, 36, 50
2, 152352, Note_on_c, 9, 36, 50
2, 152448, Note_on_c, 9, 38, 50
2, 152640, Note_on_c, 9, 36, 50
2, 152832, Note_on_c, 9, 49, 50
2, 152832, Note_on_c, 9, 36, 50
2, 153120, Note_on_c, 9, 36, 50
2, 153216, Note_on_c, 9, 38, 50
2, 153504, Note_on_c, 9, 38, 50
2, 153600, Note_on_c, 9, 36, 50
2, 153696, Note_on_c, 9, 38, 50
2, 153792, Note_on_c, 9, 36, 50
2, 153888, Note_on_c, 9, 36, 50
2, 153984, Note_on_c, 9, 38, 50
2, 154176, Note_on_c, 9, 36, 50
2, 154368, Note_on_c, 9, 49, 50
2, 154368, Note_on_c, 9, 36, 50
2, 154656, Note_on_c, 9, 36, 50
2, 154752, Note_on_c, 9, 38, 50
2, 155040, Note_on_c, 9, 38, 50
2, 155040, Note_on_c, 9, 38, 50
2, 155136, Note_on_c, 9, 36, 50
2, 155418, Note_on_c, 9, 38, 50
2, 155418, Note_on_c, 9, 38, 50
2, 155612, Note_on_c, 9, 38, 50
2, 155612, Note_on_c, 9, 38, 50
2, 155806, Note_on_c, 9, 38, 50
2, 155904, Note_on_c, 9, 36, 50
2, 155904, Note_on_c, 9, 42, 50
2, 156096, Note_on_c, 9, 42, 50
2, 156096, Note_on_c, 9, 36, 50
2, 156288, Note_on_c, 9, 42, 50
2, 156288, Note_on_c, 9, 38, 50
2, 156480, Note_on_c, 9, 42, 50
2, 156672, Note_on_c, 9, 42, 50
2, 156672, Note_on_c, 9, 36, 50
2, 156864, Note_on_c, 9, 42, 50
2, 156864, Note_on_c, 9, 36, 50
2, 157056, Note_on_c, 9, 42, 50
2, 157056, Note_on_c, 9, 38, 50
2, 157248, Note_on_c, 9, 42, 50
2, 157440, Note_on_c, 9, 42, 50
2, 157440, Note_on_c, 9, 36, 50
2, 157632, Note_on_c, 9, 42, 50
2, 157632, Note_on_c, 9, 36, 50
2, 157824, Note_on_c, 9, 42, 50
2, 157824, Note_on_c, 9, 38, 50
2, 158016, Note_on_c, 9, 42, 50
2, 158208, Note_on_c, 9, 42, 50
2, 158208, Note_on_c, 9, 36, 50
2, 158400, Note_on_c, 9, 42, 50
2, 158400, Note_on_c, 9, 36, 50
2, 158592, Note_on_c, 9, 38, 50
2, 158592, Note_on_c, 9, 42, 50
2, 158784, Note_on_c, 9, 46, 50
2, 158976, Note_on_c, 9, 42, 50
2, 158976, Note_on_c, 9, 36, 50
2, 159168, Note_on_c, 9, 42, 50
2, 159168, Note_on_c, 9, 36, 50
2, 159360, Note_on_c, 9, 42, 50
2, 159360, Note_on_c, 9, 38, 50
2, 159552, Note_on_c, 9, 42, 50
2, 159744, Note_on_c, 9, 42, 50
2, 159744, Note_on_c, 9, 36, 50
2, 159936, Note_on_c, 9, 36, 50
2, 159936, Note_on_c, 9, 42, 50
2, 160128, Note_on_c, 9, 38, 50
2, 160128, Note_on_c, 9, 42, 50
2, 160320, Note_on_c, 9, 42, 50
2, 160512, Note_on_c, 9, 36, 50
2, 160512, Note_on_c, 9, 42, 50
2, 160704, Note_on_c, 9, 36, 50
2, 160704, Note_on_c, 9, 42, 50
2, 160896, Note_on_c, 9, 42, 50
2, 160896, Note_on_c, 9, 38, 50
2, 161088, Note_on_c, 9, 42, 50
2, 161280, Note_on_c, 9, 42, 50
2, 161280, Note_on_c, 9, 36, 50
2, 161472, Note_on_c, 9, 42, 50
2, 161472, Note_on_c, 9, 36, 50
2, 161664, Note_on_c, 9, 42, 50
2, 161664, Note_on_c, 9, 38, 50
2, 161856, Note_on_c, 9, 46, 50
2, 162048, Note_on_c, 9, 42, 50
2, 162048, Note_on_c, 9, 36, 50
2, 162240, Note_on_c, 9, 42, 50
2, 162240, Note_on_c, 9, 36, 50
2, 162432, Note_on_c, 9, 42, 50
2, 162432, Note_on_c, 9, 38, 50
2, 162624, Note_on_c, 9, 42, 50
2, 162816, Note_on_c, 9, 42, 50
2, 162816, Note_on_c, 9, 36, 50
2, 163008, Note_on_c, 9, 36, 50
2, 163008, Note_on_c, 9, 42, 50
2, 163200, Note_on_c, 9, 38, 50
2, 163200, Note_on_c, 9, 42, 50
2, 163392, Note_on_c, 9, 42, 50
2, 163584, Note_on_c, 9, 36, 50
2, 163584, Note_on_c, 9, 42, 50
2, 163776, Note_on_c, 9, 36, 50
2, 163776, Note_on_c, 9, 42, 50
2, 163968, Note_on_c, 9, 38, 50
2, 163968, Note_on_c, 9, 42, 50
2, 164160, Note_on_c, 9, 42, 50
2, 164352, Note_on_c, 9, 42, 50
2, 164352, Note_on_c, 9, 36, 50
2, 164544, Note_on_c, 9, 36, 50
2, 164544, Note_on_c, 9, 42, 50
2, 164736, Note_on_c, 9, 42, 50
2, 164736, Note_on_c, 9, 38, 50
2, 164928, Note_on_c, 9, 46, 50
2, 165120, Note_on_c, 9, 36, 50
2, 165120, Note_on_c, 9, 42, 50
2, 165312, Note_on_c, 9, 36, 50
2, 165312, Note_on_c, 9, 42, 50
2, 165504, Note_on_c, 9, 38, 50
2, 165504, Note_on_c, 9, 42, 50
2, 165696, Note_on_c, 9, 42, 50
2, 165888, Note_on_c, 9, 36, 50
2, 165888, Note_on_c, 9, 42, 50
2, 166080, Note_on_c, 9, 42, 50
2, 166080, Note_on_c, 9, 36, 50
2, 166272, Note_on_c, 9, 42, 50
2, 166272, Note_on_c, 9, 38, 50
2, 166464, Note_on_c, 9, 42, 50
2, 166656, Note_on_c, 9, 42, 50
2, 166656, Note_on_c, 9, 36, 50
2, 166848, Note_on_c, 9, 36, 50
2, 166848, Note_on_c, 9, 42, 50
2, 167040, Note_on_c, 9, 38, 50
2, 167040, Note_on_c, 9, 42, 50
2, 167232, Note_on_c, 9, 42, 50
2, 167424, Note_on_c, 9, 42, 50
2, 167424, Note_on_c, 9, 36, 50
2, 167616, Note_on_c, 9, 36, 50
2, 167616, Note_on_c, 9, 42, 50
2, 167808, Note_on_c, 9, 38, 50
2, 167808, Note_on_c, 9, 42, 50
2, 168000, Note_on_c, 9, 46, 50
2, 168192, Note_on_c, 9, 36, 50
2, 168192, Note_on_c, 9, 42, 50
2, 168384, Note_on_c, 9, 36, 50
2, 168384, Note_on_c, 9, 42, 50
2, 168576, Note_on_c, 9, 38, 50
2, 168576, Note_on_c, 9, 42, 50
2, 168768, Note_on_c, 9, 42, 50
2, 168960, Note_on_c, 9, 36, 50
2, 168960, Note_on_c, 9, 42, 50
2, 169152, Note_on_c, 9, 42, 50
2, 169152, Note_on_c, 9, 36, 50
2, 169344, Note_on_c, 9, 38, 50
2, 169344, Note_on_c, 9, 42, 50
2, 169536, Note_on_c, 9, 42, 50
2, 169728, Note_on_c, 9, 36, 50
2, 169728, Note_on_c, 9, 42, 50
2, 169920, Note_on_c, 9, 42, 50
2, 169920, Note_on_c, 9, 36, 50
2, 170112, Note_on_c, 9, 38, 50
2, 170112, Note_on_c, 9, 42, 50
2, 170304, Note_on_c, 9, 42, 50
2, 170496, Note_on_c, 9, 42, 50
2, 170496, Note_on_c, 9, 36, 50
2, 170688, Note_on_c, 9, 42, 50
2, 170688, Note_on_c, 9, 36, 50
2, 170880, Note_on_c, 9, 38, 50
2, 170880, Note_on_c, 9, 42, 50
2, 171072, Note_on_c, 9, 46, 50
2, 171264, Note_on_c, 9, 36, 50
2, 171264, Note_on_c, 9, 42, 50
2, 171456, Note_on_c, 9, 42, 50
2, 171456, Note_on_c, 9, 36, 50
2, 171648, Note_on_c, 9, 38, 50
2, 171648, Note_on_c, 9, 42, 50
2, 171840, Note_on_c, 9, 42, 50
2, 172032, Note_on_c, 9, 42, 50
2, 172032, Note_on_c, 9, 36, 50
2, 172224, Note_on_c, 9, 36, 50
2, 172224, Note_on_c, 9, 42, 50
2, 172416, Note_on_c, 9, 38, 50
2, 172416, Note_on_c, 9, 42, 50
2, 172608, Note_on_c, 9, 42, 50
2, 172800, Note_on_c, 9, 36, 50
2, 172800, Note_on_c, 9, 42, 50
2, 172992, Note_on_c, 9, 42, 50
2, 172992, Note_on_c, 9, 36, 50
2, 173184, Note_on_c, 9, 38, 50
2, 173184, Note_on_c, 9, 42, 50
2, 173376, Note_on_c, 9, 42, 50
2, 173568, Note_on_c, 9, 42, 50
2, 173568, Note_on_c, 9, 36, 50
2, 173760, Note_on_c, 9, 36, 50
2, 173760, Note_on_c, 9, 42, 50
2, 173952, Note_on_c, 9, 38, 50
2, 173952, Note_on_c, 9, 46, 50
2, 174336, Note_on_c, 9, 36, 50
2, 174528, Note_on_c, 9, 42, 50
2, 174528, Note_on_c, 9, 36, 50
2, 174720, Note_on_c, 9, 38, 50
2, 174720, Note_on_c, 9, 42, 50
2, 174912, Note_on_c, 9, 42, 50
2, 175104, Note_on_c, 9, 36, 50
2, 175104, Note_on_c, 9, 42, 50
2, 175296, Note_on_c, 9, 42, 50
2, 175296, Note_on_c, 9, 36, 50
2, 175488, Note_on_c, 9, 38, 50
2, 175488, Note_on_c, 9, 42, 50
2, 175680, Note_on_c, 9, 42, 50
2, 175872, Note_on_c, 9, 36, 50
2, 175872, Note_on_c, 9, 42, 50
2, 176064, Note_on_c, 9, 42, 50
2, 176064, Note_on_c, 9, 36, 50
2, 176256, Note_on_c, 9, 38, 50
2, 176256, Note_on_c, 9, 42, 50
2, 176448, Note_on_c, 9, 42, 50
2, 176640, Note_on_c, 9, 36, 50
2, 176640, Note_on_c, 9, 42, 50
2, 176832, Note_on_c, 9, 36, 50
2, 176832, Note_on_c, 9, 42, 50
2, 177024, Note_on_c, 9, 38, 50
2, 177024, Note_on_c, 9, 42, 50
2, 177216, Note_on_c, 9, 42, 50
2, 177408, Note_on_c, 9, 36, 50
2, 177600, Note_on_c, 9, 42, 50
2, 177600, Note_on_c, 9, 36, 50
2, 177792, Note_on_c, 9, 38, 50
2, 177792, Note_on_c, 9, 42, 50
2, 177984, Note_on_c, 9, 42, 50
2, 178176, Note_on_c, 9, 36, 50
2, 178176, Note_on_c, 9, 42, 50
2, 178368, Note_on_c, 9, 36, 50
2, 178368, Note_on_c, 9, 42, 50
2, 178560, Note_on_c, 9, 38, 50
2, 178560, Note_on_c, 9, 42, 50
2, 178752, Note_on_c, 9, 42, 50
2, 178944, Note_on_c, 9, 42, 50
2, 178944, Note_on_c, 9, 36, 50
2, 179136, Note_on_c, 9, 42, 50
2, 179136, Note_on_c, 9, 36, 50
2, 179328, Note_on_c, 9, 38, 50
2, 179328, Note_on_c, 9, 42, 50
2, 179520, Note_on_c, 9, 42, 50
2, 179712, Note_on_c, 9, 42, 50
2, 179712, Note_on_c, 9, 36, 50
2, 179904, Note_on_c, 9, 42, 50
2, 179904, Note_on_c, 9, 36, 50
2, 180096, Note_on_c, 9, 42, 50
2, 180096, Note_on_c, 9, 38, 50
2, 180288, Note_on_c, 9, 42, 50
2, 180480, Note_on_c, 9, 36, 50
2, 180672, Note_on_c, 9, 42, 50
2, 180672, Note_on_c, 9, 36, 50
2, 180864, Note_on_c, 9, 38, 50
2, 180864, Note_on_c, 9, 42, 50
2, 181056, Note_on_c, 9, 36, 50
2, 181056, Note_on_c, 9, 42, 50
2, 181248, Note_on_c, 9, 36, 50
2, 181248, Note_on_c, 9, 42, 50
2, 181440, Note_on_c, 9, 42, 50
2, 181440, Note_on_c, 9, 36, 50
2, 181632, Note_on_c, 9, 38, 50
2, 181632, Note_on_c, 9, 42, 50
2, 181824, Note_on_c, 9, 42, 50
2, 181824, Note_on_c, 9, 36, 50
2, 182016, Note_on_c, 9, 36, 50
2, 182016, Note_on_c, 9, 42, 50
2, 182208, Note_on_c, 9, 36, 50
2, 182208, Note_on_c, 9, 42, 50
2, 182400, Note_on_c, 9, 38, 50
2, 182400, Note_on_c, 9, 42, 50
2, 182592, Note_on_c, 9, 36, 50
2, 182592, Note_on_c, 9, 42, 50
2, 182784, Note_on_c, 9, 42, 50
2, 182784, Note_on_c, 9, 36, 50
2, 182976, Note_on_c, 9, 42, 50
2, 182976, Note_on_c, 9, 36, 50
2, 183168, Note_on_c, 9, 42, 50
2, 183168, Note_on_c, 9, 38, 50
2, 183360, Note_on_c, 9, 42, 50
2, 183360, Note_on_c, 9, 36, 50
2, 183552, Note_on_c, 9, 36, 50
2, 183744, Note_on_c, 9, 42, 50
2, 183744, Note_on_c, 9, 36, 50
2, 183936, Note_on_c, 9, 42, 50
2, 183936, Note_on_c, 9, 38, 50
2, 184128, Note_on_c, 9, 42, 50
2, 184128, Note_on_c, 9, 36, 50
2, 184320, Note_on_c, 9, 42, 50
2, 184320, Note_on_c, 9, 36, 50
2, 184512, Note_on_c, 9, 36, 50
2, 184512, Note_on_c, 9, 42, 50
2, 184704, Note_on_c, 9, 38, 50
2, 184704, Note_on_c, 9, 42, 50
2, 184704, Note_on_c, 9, 38, 50
2, 184896, Note_on_c, 9, 42, 50
2, 184896, Note_on_c, 9, 36, 50
2, 185088, Note_on_c, 9, 36, 50
2, 185179, Note_on_c, 9, 38, 50
2, 185278, Note_on_c, 9, 38, 50
2, 185278, Note_on_c, 9, 38, 50
2, 185280, Note_on_c, 9, 36, 50
2, 185467, Note_on_c, 9, 38, 50
2, 185467, Note_on_c, 9, 38, 50
2, 185472, Note_on_c, 9, 36, 50
2, 185656, Note_on_c, 9, 38, 50
2, 185664, Note_on_c, 9, 36, 50
2, 185755, Note_on_c, 9, 38, 50
2, 185755, Note_on_c, 9, 38, 50
2, 185856, Note_on_c, 9, 36, 50
2, 185954, Note_on_c, 9, 38, 50
2, 186048, Note_on_c, 9, 36, 50
2, 186053, Note_on_c, 9, 38, 50
2, 186144, Note_on_c, 9, 36, 50
2, 186432, Note_on_c, 9, 36, 50
2, 186624, Note_on_c, 9, 36, 50
2, 186624, Note_on_c, 9, 49, 50
2, 186912, Note_on_c, 9, 36, 50
2, 187008, Note_on_c, 9, 38, 50
2, 187296, Note_on_c, 9, 38, 50
2, 187392, Note_on_c, 9, 36, 50
2, 187488, Note_on_c, 9, 38, 50
2, 187584, Note_on_c, 9, 36, 50
2, 187680, Note_on_c, 9, 36, 50
2, 187776, Note_on_c, 9, 38, 50
2, 187968, Note_on_c, 9, 36, 50
2, 188160, Note_on_c, 9, 36, 50
2, 188160, Note_on_c, 9, 49, 50
2, 188448, Note_on_c, 9, 36, 50
2, 188544, Note_on_c, 9, 38, 50
2, 188832, Note_on_c, 9, 38, 50
2, 188928, Note_on_c, 9, 36, 50
2, 189024, Note_on_c, 9, 38, 50
2, 189120, Note_on_c, 9, 36, 50
2, 189216, Note_on_c, 9, 36, 50
2, 189312, Note_on_c, 9, 38, 50
2, 189504, Note_on_c, 9, 36, 50
2, 189696, Note_on_c, 9, 49, 50
2, 189696, Note_on_c, 9, 36, 50
2, 189984, Note_on_c, 9, 36, 50
2, 190080, Note_on_c, 9, 38, 50
2, 190368, Note_on_c, 9, 38, 50
2, 190464, Note_on_c, 9, 36, 50
2, 190560, Note_on_c, 9, 38, 50
2, 190656, Note_on_c, 9, 36, 50
2, 190752, Note_on_c, 9, 36, 50
2, 190848, Note_on_c, 9, 38, 50
2, 191040, Note_on_c, 9, 36, 50
2, 191232, Note_on_c, 9, 49, 50
2, 191232, Note_on_c, 9, 36, 50
2, 191520, Note_on_c, 9, 36, 50
2, 191616, Note_on_c, 9, 38, 50
2, 191904, Note_on_c, 9, 38, 50
2, 192000, Note_on_c, 9, 36, 50
2, 192096, Note_on_c, 9, 38, 50
2, 192192, Note_on_c, 9, 36, 50
2, 192288, Note_on_c, 9, 36, 50
2, 192384, Note_on_c, 9, 38, 50
2, 192576, Note_on_c, 9, 36, 50
2, 192768, Note_on_c, 9, 36, 50
2, 192768, Note_on_c, 9, 49, 50
2, 193056, Note_on_c, 9, 36, 50
2, 193152, Note_on_c, 9, 38, 50
2, 193440, Note_on_c, 9, 38, 50
2, 193536, Note_on_c, 9, 36, 50
2, 193632, Note_on_c, 9, 38, 50
2, 193728, Note_on_c, 9, 36, 50
2, 193824, Note_on_c, 9, 36, 50
2, 193920, Note_on_c, 9, 38, 50
2, 194112, Note_on_c, 9, 36, 50
2, 194304, Note_on_c, 9, 36, 50
2, 194304, Note_on_c, 9, 49, 50
2, 194592, Note_on_c, 9, 36, 50
2, 194688, Note_on_c, 9, 38, 50
2, 194976, Note_on_c, 9, 38, 50
2, 195072, Note_on_c, 9, 36, 50
2, 195168, Note_on_c, 9, 38, 50
2, 195264, Note_on_c, 9, 36, 50
2, 195360, Note_on_c, 9, 36, 50
2, 195456, Note_on_c, 9, 38, 50
2, 195648, Note_on_c, 9, 36, 50
2, 195840, Note_on_c, 9, 36, 50
2, 195840, Note_on_c, 9, 49, 50
2, 196128, Note_on_c, 9, 36, 50
2, 196224, Note_on_c, 9, 38, 50
2, 196512, Note_on_c, 9, 38, 50
2, 196608, Note_on_c, 9, 36, 50
2, 196704, Note_on_c, 9, 38, 50
2, 196800, Note_on_c, 9, 36, 50
2, 196896, Note_on_c, 9, 36, 50
2, 196992, Note_on_c, 9, 38, 50
2, 197184, Note_on_c, 9, 36, 50
2, 197376, Note_on_c, 9, 49, 50
2, 197376, Note_on_c, 9, 36, 50
2, 197664, Note_on_c, 9, 36, 50
2, 197760, Note_on_c, 9, 38, 50
2, 198048, Note_on_c, 9, 38, 50
2, 198144, Note_on_c, 9, 36, 50
2, 198240, Note_on_c, 9, 38, 50
2, 198336, Note_on_c, 9, 36, 50
2, 198432, Note_on_c, 9, 36, 50
2, 198528, Note_on_c, 9, 38, 50
2, 198720, Note_on_c, 9, 36, 50
2, 198912, Note_on_c, 9, 49, 50
2, 198912, Note_on_c, 9, 36, 50
2, 199200, Note_on_c, 9, 36, 50
2, 199296, Note_on_c, 9, 38, 50
2, 199296, Note_on_c, 9, 49, 50
2, 199584, Note_on_c, 9, 38, 50
2, 199680, Note_on_c, 9, 36, 50
2, 199680, Note_on_c, 9, 49, 50
2, 199776, Note_on_c, 9, 38, 50
2, 199872, Note_on_c, 9, 36, 50
2, 199968, Note_on_c, 9, 36, 50
2, 200064, Note_on_c, 9, 38, 50
2, 200064, Note_on_c, 9, 49, 50
2, 200256, Note_on_c, 9, 36, 50
2, 200448, Note_on_c, 9, 36, 50
2, 200448, Note_on_c, 9, 49, 50
2, 200736, Note_on_c, 9, 36, 50
2, 200832, Note_on_c, 9, 38, 50
2, 200832, Note_on_c, 9, 49, 50
2, 201120, Note_on_c, 9, 38, 50
2, 201216, Note_on_c, 9, 36, 50
2, 201216, Note_on_c, 9, 49, 50
2, 201312, Note_on_c, 9, 38, 50
2, 201408, Note_on_c, 9, 36, 50
2, 201504, Note_on_c, 9, 36, 50
2, 201600, Note_on_c, 9, 38, 50
2, 201600, Note_on_c, 9, 49, 50
2, 201792, Note_on_c, 9, 36, 50
2, 201984, Note_on_c, 9, 49, 50
2, 201984, Note_on_c, 9, 36, 50
2, 202272, Note_on_c, 9, 36, 50
2, 202368, Note_on_c, 9, 38, 50
2, 202368, Note_on_c, 9, 49, 50
2, 202656, Note_on_c, 9, 38, 50
2, 202752, Note_on_c, 9, 49, 50
2, 202752, Note_on_c, 9, 36, 50
2, 202848, Note_on_c, 9, 38, 50
2, 202944, Note_on_c, 9, 36, 50
2, 203040, Note_on_c, 9, 36, 50
2, 203136, Note_on_c, 9, 38, 50
2, 203136, Note_on_c, 9, 49, 50
2, 203328, Note_on_c, 9, 36, 50
2, 203520, Note_on_c, 9, 49, 50
2, 203520, Note_on_c, 9, 36, 50
2, 203808, Note_on_c, 9, 36, 50
2, 203904, Note_on_c, 9, 38, 50
2, 203904, Note_on_c, 9, 49, 50
2, 204192, Note_on_c, 9, 38, 50
2, 204288, Note_on_c, 9, 49, 50
2, 204288, Note_on_c, 9, 36, 50
2, 204384, Note_on_c, 9, 38, 50
2, 204480, Note_on_c, 9, 36, 50
2, 204576, Note_on_c, 9, 36, 50
2, 204672, Note_on_c, 9, 38, 50
2, 204672, Note_on_c, 9, 49, 50
2, 204864, Note_on_c, 9, 36, 50
2, 205056, Note_on_c, 9, 49, 50
2, 205056, Note_on_c, 9, 36, 50
2, 205344, Note_on_c, 9, 36, 50
2, 205440, Note_on_c, 9, 38, 50
2, 205728, Note_on_c, 9, 36, 50
2, 205824, Note_on_c, 9, 38, 50
2, 205920, Note_on_c, 9, 36, 50
2, 206112, Note_on_c, 9, 36, 50
2, 206208, Note_on_c, 9, 38, 50
2, 206400, Note_on_c, 9, 36, 50
2, 206592, Note_on_c, 9, 49, 50
2, 206592, Note_on_c, 9, 36, 50
2, 206880, Note_on_c, 9, 36, 50
2, 206976, Note_on_c, 9, 38, 50
2, 207264, Note_on_c, 9, 36, 50
2, 207360, Note_on_c, 9, 38, 50
2, 207456, Note_on_c, 9, 36, 50
2, 207648, Note_on_c, 9, 36, 50
2, 207744, Note_on_c, 9, 38, 50
2, 207936, Note_on_c, 9, 36, 50
2, 208128, Note_on_c, 9, 36, 50
2, 208128, Note_on_c, 9, 49, 50
2, 208416, Note_on_c, 9, 36, 50
2, 208512, Note_on_c, 9, 38, 50
2, 208800, Note_on_c, 9, 36, 50
2, 208896, Note_on_c, 9, 38, 50
2, 208992, Note_on_c, 9, 36, 50
2, 209184, Note_on_c, 9, 36, 50
2, 209280, Note_on_c, 9, 38, 50
2, 209472, Note_on_c, 9, 36, 50
2, 209664, Note_on_c, 9, 49, 50
2, 209664, Note_on_c, 9, 36, 50
2, 209952, Note_on_c, 9, 36, 50
2, 210048, Note_on_c, 9, 38, 50
2, 210336, Note_on_c, 9, 36, 50
2, 210432, Note_on_c, 9, 38, 50
2, 210528, Note_on_c, 9, 36, 50
2, 210720, Note_on_c, 9, 36, 50
2, 210816, Note_on_c, 9, 38, 50
2, 211008, Note_on_c, 9, 36, 50
2, 211200, Note_on_c, 9, 36, 50
2, 211200, Note_on_c, 9, 49, 50
2, 211488, Note_on_c, 9, 36, 50
2, 211584, Note_on_c, 9, 38, 50
2, 211872, Note_on_c, 9, 36, 50
2, 211968, Note_on_c, 9, 38, 50
2, 212064, Note_on_c, 9, 36, 50
2, 212256, Note_on_c, 9, 36, 50
2, 212352, Note_on_c, 9, 38, 50
2, 212544, Note_on_c, 9, 36, 50
2, 212736, Note_on_c, 9, 49, 50
2, 212736, Note_on_c, 9, 36, 50
2, 213024, Note_on_c, 9, 36, 50
2, 213120, Note_on_c, 9, 38, 50
2, 213408, Note_on_c, 9, 36, 50
2, 213504, Note_on_c, 9, 38, 50
2, 213600, Note_on_c, 9, 36, 50
2, 213792, Note_on_c, 9, 36, 50
2, 213888, Note_on_c, 9, 38, 50
2, 214080, Note_on_c, 9, 36, 50
2, 214272, Note_on_c, 9, 36, 50
2, 214272, Note_on_c, 9, 49, 50
2, 214560, Note_on_c, 9, 36, 50
2, 214656, Note_on_c, 9, 38, 50
2, 214944, Note_on_c, 9, 36, 50
2, 215040, Note_on_c, 9, 38, 50
2, 215136, Note_on_c, 9, 36, 50
2, 215328, Note_on_c, 9, 36, 50
2, 215424, Note_on_c, 9, 38, 50
2, 215616, Note_on_c, 9, 36, 50
2, 215808, Note_on_c, 9, 49, 50
2, 215808, Note_on_c, 9, 36, 50
2, 216096, Note_on_c, 9, 36, 50
2, 216192, Note_on_c, 9, 38, 50
2, 216192, Note_on_c, 9, 38, 50
2, 216480, Note_on_c, 9, 36, 50
2, 216672, Note_on_c, 9, 36, 50
2, 216864, Note_on_c, 9, 36, 50
2, 217152, Note_on_c, 9, 36, 50
2, 217344, Note_on_c, 9, 49, 50
2, 217344, Note_on_c, 9, 36, 50